<svg xmlns="http://www.w3.org/2000/svg" xmlns:xlink="http://www.w3.org/1999/xlink" width="100" zoomAndPan="magnify" viewBox="0 0 75 74.999997" height="100" preserveAspectRatio="xMidYMid meet" version="1.0"><defs><clipPath id="150b12d102"><path d="M 2.851562 3.300781 L 72.449219 3.300781 L 72.449219 72.898438 L 2.851562 72.898438 Z M 2.851562 3.300781 " clip-rule="nonzero"/></clipPath><clipPath id="ecd429c2d6"><path d="M 37.648438 3.300781 C 18.429688 3.300781 2.851562 18.878906 2.851562 38.101562 C 2.851562 57.320312 18.429688 72.898438 37.648438 72.898438 C 56.871094 72.898438 72.449219 57.320312 72.449219 38.101562 C 72.449219 18.878906 56.871094 3.300781 37.648438 3.300781 Z M 37.648438 3.300781 " clip-rule="nonzero"/></clipPath><clipPath id="c2b48d0ced"><path d="M 22.433594 16.382812 L 52.433594 16.382812 L 52.433594 59.882812 L 22.433594 59.882812 Z M 22.433594 16.382812 " clip-rule="nonzero"/></clipPath></defs><g clip-path="url(#150b12d102)"><g clip-path="url(#ecd429c2d6)"><path fill="#ffbd59" d="M 2.851562 3.300781 L 72.449219 3.300781 L 72.449219 72.898438 L 2.851562 72.898438 Z M 2.851562 3.300781 " fill-opacity="1" fill-rule="nonzero"/></g></g><g clip-path="url(#c2b48d0ced)"><path fill="#1f6040" d="M 37.496094 16.375 C 29.183594 16.375 22.445312 23.117188 22.445312 31.429688 C 22.445312 32.8125 22.632812 34.152344 22.984375 35.421875 C 23.285156 36.53125 23.710938 37.589844 24.246094 38.578125 C 24.375 38.816406 24.511719 39.054688 24.652344 39.285156 L 36.003906 58.945312 C 36.027344 58.984375 36.050781 59.03125 36.078125 59.070312 C 36.386719 59.523438 36.90625 59.816406 37.496094 59.816406 C 38.085938 59.816406 38.609375 59.515625 38.917969 59.066406 L 38.96875 58.980469 L 50.339844 39.289062 L 50.75 38.578125 C 51.285156 37.585938 51.707031 36.527344 52.011719 35.421875 C 52.359375 34.152344 52.550781 32.8125 52.550781 31.429688 C 52.550781 23.117188 45.8125 16.375 37.496094 16.375 Z M 37.496094 37.742188 C 34.011719 37.742188 31.183594 34.914062 31.183594 31.429688 C 31.183594 27.945312 34.007812 25.117188 37.496094 25.117188 C 40.984375 25.117188 43.808594 27.945312 43.808594 31.429688 C 43.808594 34.914062 40.984375 37.742188 37.496094 37.742188 Z M 37.496094 37.742188 " fill-opacity="1" fill-rule="nonzero"/></g></svg>