<svg xmlns="http://www.w3.org/2000/svg" xmlns:xlink="http://www.w3.org/1999/xlink" width="100" zoomAndPan="magnify" viewBox="0 0 75 74.999997" height="100" preserveAspectRatio="xMidYMid meet" version="1.0"><defs><clipPath id="83227ea52a"><path d="M 2.851562 3.300781 L 72.449219 3.300781 L 72.449219 72.898438 L 2.851562 72.898438 Z M 2.851562 3.300781 " clip-rule="nonzero"/></clipPath><clipPath id="b2ced11608"><path d="M 37.648438 3.300781 C 18.429688 3.300781 2.851562 18.878906 2.851562 38.101562 C 2.851562 57.320312 18.429688 72.898438 37.648438 72.898438 C 56.871094 72.898438 72.449219 57.320312 72.449219 38.101562 C 72.449219 18.878906 56.871094 3.300781 37.648438 3.300781 Z M 37.648438 3.300781 " clip-rule="nonzero"/></clipPath><clipPath id="f6123efcc3"><path d="M 9.933594 12.53125 L 62.433594 12.53125 L 62.433594 63.53125 L 9.933594 63.53125 Z M 9.933594 12.53125 " clip-rule="nonzero"/></clipPath></defs><g clip-path="url(#83227ea52a)"><g clip-path="url(#b2ced11608)"><path fill="#ffbd59" d="M 2.851562 3.300781 L 72.449219 3.300781 L 72.449219 72.898438 L 2.851562 72.898438 Z M 2.851562 3.300781 " fill-opacity="1" fill-rule="nonzero"/></g></g><g clip-path="url(#f6123efcc3)"><path fill="#1f6040" d="M 61.921875 28.722656 L 61.070312 28.722656 L 61.070312 27.015625 C 61.070312 26.675781 61.007812 26.351562 60.875 26.039062 C 60.746094 25.726562 60.5625 25.449219 60.324219 25.207031 C 60.082031 24.96875 59.804688 24.785156 59.492188 24.65625 C 59.179688 24.523438 58.855469 24.460938 58.515625 24.460938 L 55.957031 24.460938 L 55.957031 21.902344 C 55.957031 21.289062 55.898438 20.679688 55.777344 20.074219 C 55.660156 19.472656 55.480469 18.886719 55.246094 18.316406 C 55.007812 17.746094 54.722656 17.207031 54.378906 16.695312 C 54.035156 16.183594 53.648438 15.710938 53.214844 15.277344 C 52.777344 14.839844 52.304688 14.453125 51.792969 14.109375 C 51.28125 13.769531 50.742188 13.480469 50.171875 13.242188 C 49.601562 13.007812 49.015625 12.832031 48.414062 12.710938 C 47.808594 12.589844 47.199219 12.53125 46.585938 12.53125 L 26.132812 12.53125 C 25.519531 12.53125 24.910156 12.589844 24.304688 12.710938 C 23.699219 12.832031 23.113281 13.007812 22.546875 13.242188 C 21.976562 13.480469 21.4375 13.769531 20.925781 14.109375 C 20.414062 14.453125 19.941406 14.839844 19.503906 15.277344 C 19.070312 15.710938 18.679688 16.183594 18.339844 16.695312 C 17.996094 17.207031 17.707031 17.746094 17.472656 18.316406 C 17.238281 18.886719 17.058594 19.472656 16.941406 20.074219 C 16.820312 20.679688 16.761719 21.289062 16.761719 21.902344 L 16.761719 24.460938 L 14.203125 24.460938 C 13.863281 24.460938 13.539062 24.523438 13.226562 24.65625 C 12.910156 24.785156 12.636719 24.96875 12.394531 25.207031 C 12.15625 25.449219 11.972656 25.726562 11.839844 26.039062 C 11.710938 26.351562 11.648438 26.675781 11.648438 27.015625 L 11.648438 28.722656 L 10.792969 28.722656 C 10.558594 28.722656 10.359375 28.804688 10.191406 28.96875 C 10.027344 29.136719 9.941406 29.335938 9.941406 29.574219 L 9.941406 34.6875 C 9.941406 34.921875 10.027344 35.121094 10.191406 35.289062 C 10.359375 35.453125 10.558594 35.539062 10.792969 35.539062 L 14.203125 35.539062 C 14.4375 35.539062 14.640625 35.453125 14.804688 35.289062 C 14.972656 35.121094 15.054688 34.921875 15.054688 34.6875 L 15.054688 29.574219 C 15.054688 29.335938 14.972656 29.136719 14.804688 28.96875 C 14.640625 28.804688 14.4375 28.722656 14.203125 28.722656 L 13.351562 28.722656 L 13.351562 27.015625 C 13.351562 26.78125 13.433594 26.582031 13.601562 26.414062 C 13.765625 26.246094 13.96875 26.164062 14.203125 26.164062 L 16.761719 26.164062 L 16.761719 55.988281 C 16.761719 56.328125 16.824219 56.65625 16.953125 56.96875 C 17.085938 57.28125 17.269531 57.558594 17.507812 57.796875 C 17.75 58.035156 18.023438 58.222656 18.339844 58.351562 C 18.652344 58.480469 18.976562 58.546875 19.316406 58.546875 L 21.019531 58.546875 C 21.019531 58.882812 21.054688 59.214844 21.117188 59.542969 C 21.183594 59.871094 21.28125 60.191406 21.410156 60.503906 C 21.539062 60.8125 21.695312 61.109375 21.882812 61.386719 C 22.070312 61.664062 22.28125 61.925781 22.519531 62.160156 C 22.753906 62.398438 23.015625 62.609375 23.292969 62.796875 C 23.570312 62.984375 23.867188 63.140625 24.175781 63.269531 C 24.488281 63.398438 24.808594 63.496094 25.136719 63.5625 C 25.464844 63.625 25.796875 63.660156 26.132812 63.660156 C 26.46875 63.660156 26.800781 63.625 27.132812 63.5625 C 27.460938 63.496094 27.78125 63.398438 28.089844 63.269531 C 28.398438 63.140625 28.695312 62.984375 28.972656 62.796875 C 29.253906 62.609375 29.511719 62.398438 29.75 62.160156 C 29.984375 61.925781 30.199219 61.664062 30.382812 61.386719 C 30.570312 61.109375 30.730469 60.8125 30.855469 60.503906 C 30.984375 60.191406 31.082031 59.871094 31.148438 59.542969 C 31.214844 59.214844 31.246094 58.882812 31.246094 58.546875 L 41.472656 58.546875 C 41.472656 58.882812 41.503906 59.214844 41.570312 59.542969 C 41.636719 59.871094 41.734375 60.191406 41.859375 60.503906 C 41.988281 60.8125 42.148438 61.109375 42.332031 61.386719 C 42.519531 61.664062 42.730469 61.925781 42.96875 62.160156 C 43.207031 62.398438 43.464844 62.609375 43.746094 62.796875 C 44.023438 62.984375 44.316406 63.140625 44.628906 63.269531 C 44.9375 63.398438 45.257812 63.496094 45.585938 63.5625 C 45.917969 63.625 46.25 63.660156 46.585938 63.660156 C 46.921875 63.660156 47.253906 63.625 47.582031 63.5625 C 47.910156 63.496094 48.230469 63.398438 48.542969 63.269531 C 48.851562 63.140625 49.144531 62.984375 49.425781 62.796875 C 49.703125 62.609375 49.964844 62.398438 50.199219 62.160156 C 50.4375 61.925781 50.648438 61.664062 50.835938 61.386719 C 51.023438 61.109375 51.179688 60.8125 51.308594 60.503906 C 51.4375 60.191406 51.535156 59.871094 51.601562 59.542969 C 51.664062 59.214844 51.699219 58.882812 51.699219 58.546875 L 53.402344 58.546875 C 53.742188 58.546875 54.066406 58.480469 54.378906 58.351562 C 54.695312 58.222656 54.96875 58.035156 55.210938 57.796875 C 55.449219 57.558594 55.632812 57.28125 55.765625 56.96875 C 55.894531 56.65625 55.957031 56.328125 55.957031 55.988281 L 55.957031 26.164062 L 58.515625 26.164062 C 58.75 26.164062 58.953125 26.246094 59.117188 26.414062 C 59.285156 26.582031 59.367188 26.78125 59.367188 27.015625 L 59.367188 28.722656 L 58.515625 28.722656 C 58.28125 28.722656 58.078125 28.804688 57.914062 28.96875 C 57.746094 29.136719 57.664062 29.335938 57.664062 29.574219 L 57.664062 34.6875 C 57.664062 34.921875 57.746094 35.121094 57.914062 35.289062 C 58.078125 35.453125 58.28125 35.539062 58.515625 35.539062 L 61.921875 35.539062 C 62.160156 35.539062 62.359375 35.453125 62.527344 35.289062 C 62.691406 35.121094 62.777344 34.921875 62.777344 34.6875 L 62.777344 29.574219 C 62.777344 29.335938 62.691406 29.136719 62.527344 28.96875 C 62.359375 28.804688 62.160156 28.722656 61.921875 28.722656 Z M 28.691406 16.789062 L 44.027344 16.789062 L 44.027344 21.902344 L 28.691406 21.902344 Z M 18.464844 26.164062 L 35.507812 26.164062 L 35.507812 43.207031 L 18.464844 43.207031 Z M 54.253906 55.988281 C 54.253906 56.226562 54.171875 56.425781 54.003906 56.59375 C 53.839844 56.757812 53.636719 56.839844 53.402344 56.839844 L 19.316406 56.839844 C 19.082031 56.839844 18.878906 56.757812 18.714844 56.59375 C 18.546875 56.425781 18.464844 56.226562 18.464844 55.988281 L 18.464844 44.910156 L 54.253906 44.910156 Z M 54.253906 43.207031 L 37.210938 43.207031 L 37.210938 26.164062 L 54.253906 26.164062 Z M 54.253906 43.207031 " fill-opacity="1" fill-rule="nonzero"/></g><path fill="#1f6040" d="M 21.964844 54.667969 C 22.125 54.980469 22.375 55.136719 22.726562 55.136719 L 26.132812 55.136719 C 26.480469 55.136719 26.734375 54.980469 26.890625 54.667969 L 28.597656 51.261719 C 28.726562 51.003906 28.726562 50.75 28.597656 50.492188 L 26.890625 47.085938 C 26.734375 46.773438 26.480469 46.617188 26.132812 46.617188 L 22.726562 46.617188 C 22.375 46.617188 22.125 46.773438 21.964844 47.085938 L 20.261719 50.492188 C 20.132812 50.75 20.132812 51.003906 20.261719 51.261719 Z M 21.964844 54.667969 " fill-opacity="1" fill-rule="nonzero"/><path fill="#1f6040" d="M 45.828125 54.667969 C 45.984375 54.980469 46.234375 55.136719 46.585938 55.136719 L 49.992188 55.136719 C 50.34375 55.136719 50.59375 54.980469 50.753906 54.667969 L 52.457031 51.261719 C 52.585938 51.003906 52.585938 50.75 52.457031 50.492188 L 50.753906 47.085938 C 50.59375 46.773438 50.34375 46.617188 49.992188 46.617188 L 46.585938 46.617188 C 46.234375 46.617188 45.984375 46.773438 45.828125 47.085938 L 44.121094 50.492188 C 43.992188 50.75 43.992188 51.003906 44.121094 51.261719 Z M 45.828125 54.667969 " fill-opacity="1" fill-rule="nonzero"/><path fill="#1f6040" d="M 30.394531 48.320312 L 42.324219 48.320312 L 42.324219 50.023438 L 30.394531 50.023438 Z M 30.394531 48.320312 " fill-opacity="1" fill-rule="nonzero"/><path fill="#1f6040" d="M 30.394531 51.730469 L 42.324219 51.730469 L 42.324219 53.433594 L 30.394531 53.433594 Z M 30.394531 51.730469 " fill-opacity="1" fill-rule="nonzero"/></svg>