<svg xmlns="http://www.w3.org/2000/svg" xmlns:xlink="http://www.w3.org/1999/xlink" width="100" zoomAndPan="magnify" viewBox="0 0 75 74.999997" height="100" preserveAspectRatio="xMidYMid meet" version="1.0"><defs><clipPath id="2b03ff96a0"><path d="M 2.851562 3.300781 L 72.449219 3.300781 L 72.449219 72.898438 L 2.851562 72.898438 Z M 2.851562 3.300781 " clip-rule="nonzero"/></clipPath><clipPath id="b9dd99a737"><path d="M 37.648438 3.300781 C 18.429688 3.300781 2.851562 18.878906 2.851562 38.101562 C 2.851562 57.320312 18.429688 72.898438 37.648438 72.898438 C 56.871094 72.898438 72.449219 57.320312 72.449219 38.101562 C 72.449219 18.878906 56.871094 3.300781 37.648438 3.300781 Z M 37.648438 3.300781 " clip-rule="nonzero"/></clipPath><clipPath id="ca4074b84b"><path d="M 10.574219 10.574219 L 65.324219 10.574219 L 65.324219 65.324219 L 10.574219 65.324219 Z M 10.574219 10.574219 " clip-rule="nonzero"/></clipPath></defs><g clip-path="url(#2b03ff96a0)"><g clip-path="url(#b9dd99a737)"><path fill="#d68205" d="M 2.851562 3.300781 L 72.449219 3.300781 L 72.449219 72.898438 L 2.851562 72.898438 Z M 2.851562 3.300781 " fill-opacity="1" fill-rule="nonzero"/></g></g><g clip-path="url(#ca4074b84b)"><path fill="#1f6040" d="M 38.019531 63.636719 C 23.894531 63.636719 12.40625 52.148438 12.40625 38.019531 C 12.40625 23.894531 23.894531 12.40625 38.019531 12.40625 C 52.148438 12.40625 63.636719 23.894531 63.636719 38.019531 C 63.636719 52.148438 52.148438 63.636719 38.019531 63.636719 Z M 38.019531 10.574219 C 22.886719 10.574219 10.574219 22.886719 10.574219 38.019531 C 10.574219 53.15625 22.886719 65.464844 38.019531 65.464844 C 53.15625 65.464844 65.464844 53.15625 65.464844 38.019531 C 65.464844 22.886719 53.15625 10.574219 38.019531 10.574219 " fill-opacity="1" fill-rule="nonzero"/></g><path fill="#1f6040" d="M 40.828125 59.789062 L 41.625 45.410156 C 44.035156 44.230469 45.777344 41.914062 46.164062 39.167969 L 59.59375 33.960938 C 59.839844 35.28125 59.976562 36.632812 59.976562 38.019531 C 59.976562 49.175781 51.609375 58.40625 40.828125 59.789062 Z M 37.054688 59.953125 L 36.285156 46.066406 C 36.84375 46.1875 37.421875 46.253906 38.019531 46.253906 C 38.617188 46.253906 39.195312 46.1875 39.757812 46.066406 L 38.984375 59.953125 C 38.667969 59.964844 38.34375 59.976562 38.019531 59.976562 C 37.695312 59.976562 37.375 59.964844 37.054688 59.953125 Z M 16.0625 38.019531 C 16.0625 36.632812 16.199219 35.28125 16.445312 33.960938 L 29.875 39.167969 C 30.261719 41.914062 32.007812 44.230469 34.414062 45.410156 L 35.210938 59.789062 C 24.429688 58.40625 16.0625 49.175781 16.0625 38.019531 Z M 29.828125 37.183594 L 16.863281 32.160156 C 17.035156 31.539062 17.234375 30.921875 17.457031 30.328125 L 30.914062 33.886719 C 30.332031 34.871094 29.949219 35.992188 29.828125 37.183594 Z M 38.019531 44.425781 C 34.488281 44.425781 31.617188 41.550781 31.617188 38.019531 C 31.617188 34.488281 34.488281 31.617188 38.019531 31.617188 C 41.550781 31.617188 44.425781 34.488281 44.425781 38.019531 C 44.425781 41.550781 41.550781 44.425781 38.019531 44.425781 Z M 46.210938 37.183594 C 46.089844 35.992188 45.707031 34.871094 45.128906 33.886719 L 58.578125 30.328125 C 58.804688 30.921875 59.003906 31.539062 59.175781 32.160156 Z M 38.019531 16.0625 C 46.765625 16.0625 54.332031 21.207031 57.855469 28.621094 L 43.933594 32.304688 C 42.4375 30.753906 40.339844 29.785156 38.019531 29.785156 C 35.699219 29.785156 33.601562 30.753906 32.105469 32.304688 L 18.183594 28.621094 C 21.710938 21.207031 29.277344 16.0625 38.019531 16.0625 Z M 38.019531 14.234375 C 24.90625 14.234375 14.234375 24.90625 14.234375 38.019531 C 14.234375 51.136719 24.90625 61.804688 38.019531 61.804688 C 51.136719 61.804688 61.804688 51.136719 61.804688 38.019531 C 61.804688 24.90625 51.136719 14.234375 38.019531 14.234375 " fill-opacity="1" fill-rule="nonzero"/><path fill="#1f6040" d="M 38.019531 40.765625 C 36.503906 40.765625 35.277344 39.535156 35.277344 38.019531 C 35.277344 36.503906 36.503906 35.277344 38.019531 35.277344 C 39.535156 35.277344 40.765625 36.503906 40.765625 38.019531 C 40.765625 39.535156 39.535156 40.765625 38.019531 40.765625 Z M 38.019531 33.445312 C 35.496094 33.445312 33.445312 35.496094 33.445312 38.019531 C 33.445312 40.542969 35.496094 42.59375 38.019531 42.59375 C 40.542969 42.59375 42.59375 40.542969 42.59375 38.019531 C 42.59375 35.496094 40.542969 33.445312 38.019531 33.445312 " fill-opacity="1" fill-rule="nonzero"/></svg>