<svg xmlns="http://www.w3.org/2000/svg" xmlns:xlink="http://www.w3.org/1999/xlink" width="100" zoomAndPan="magnify" viewBox="0 0 75 74.999997" height="100" preserveAspectRatio="xMidYMid meet" version="1.0"><defs><clipPath id="89db742700"><path d="M 2.851562 3.300781 L 72.449219 3.300781 L 72.449219 72.898438 L 2.851562 72.898438 Z M 2.851562 3.300781 " clip-rule="nonzero"/></clipPath><clipPath id="b55a81bfe1"><path d="M 37.648438 3.300781 C 18.429688 3.300781 2.851562 18.878906 2.851562 38.101562 C 2.851562 57.320312 18.429688 72.898438 37.648438 72.898438 C 56.871094 72.898438 72.449219 57.320312 72.449219 38.101562 C 72.449219 18.878906 56.871094 3.300781 37.648438 3.300781 Z M 37.648438 3.300781 " clip-rule="nonzero"/></clipPath><clipPath id="2f19fb2e6d"><path d="M 8.851562 47 L 67.351562 47 L 67.351562 52 L 8.851562 52 Z M 8.851562 47 " clip-rule="nonzero"/></clipPath><clipPath id="f835bbba96"><path d="M 8.851562 52 L 67.351562 52 L 67.351562 56.34375 L 8.851562 56.34375 Z M 8.851562 52 " clip-rule="nonzero"/></clipPath><clipPath id="a0ecd9e731"><path d="M 8.851562 42 L 67.351562 42 L 67.351562 47 L 8.851562 47 Z M 8.851562 42 " clip-rule="nonzero"/></clipPath><clipPath id="2978b22764"><path d="M 32 13.59375 L 41 13.59375 L 41 21 L 32 21 Z M 32 13.59375 " clip-rule="nonzero"/></clipPath><clipPath id="574a62d384"><path d="M 57 13.59375 L 62 13.59375 L 62 18 L 57 18 Z M 57 13.59375 " clip-rule="nonzero"/></clipPath></defs><g clip-path="url(#89db742700)"><g clip-path="url(#b55a81bfe1)"><path fill="#d68205" d="M 2.851562 3.300781 L 72.449219 3.300781 L 72.449219 72.898438 L 2.851562 72.898438 Z M 2.851562 3.300781 " fill-opacity="1" fill-rule="nonzero"/></g></g><g clip-path="url(#2f19fb2e6d)"><path fill="#1f6040" d="M 63.867188 51.109375 C 62.5625 51.121094 61.414062 50.707031 60.421875 49.859375 L 60.289062 49.742188 C 59.890625 49.410156 59.445312 49.152344 58.957031 48.976562 C 58.46875 48.800781 57.960938 48.710938 57.441406 48.710938 C 56.921875 48.710938 56.417969 48.800781 55.925781 48.976562 C 55.4375 49.152344 54.992188 49.410156 54.59375 49.742188 L 54.460938 49.863281 C 53.976562 50.265625 53.441406 50.574219 52.847656 50.789062 C 52.257812 51.003906 51.648438 51.113281 51.019531 51.113281 C 50.390625 51.113281 49.777344 51.003906 49.1875 50.789062 C 48.597656 50.574219 48.058594 50.265625 47.578125 49.863281 L 47.441406 49.742188 C 47.042969 49.410156 46.597656 49.152344 46.109375 48.976562 C 45.617188 48.796875 45.113281 48.710938 44.59375 48.710938 C 44.074219 48.710938 43.570312 48.796875 43.078125 48.976562 C 42.589844 49.152344 42.144531 49.410156 41.746094 49.742188 L 41.613281 49.863281 C 41.128906 50.265625 40.59375 50.574219 40 50.789062 C 39.410156 51.003906 38.800781 51.109375 38.171875 51.109375 C 37.542969 51.109375 36.929688 51.003906 36.339844 50.789062 C 35.75 50.574219 35.210938 50.265625 34.726562 49.863281 L 34.59375 49.742188 C 34.195312 49.410156 33.75 49.152344 33.261719 48.976562 C 32.769531 48.796875 32.265625 48.710938 31.746094 48.710938 C 31.226562 48.710938 30.722656 48.796875 30.230469 48.976562 C 29.742188 49.152344 29.296875 49.410156 28.898438 49.742188 L 28.765625 49.863281 C 28.28125 50.265625 27.746094 50.574219 27.152344 50.789062 C 26.5625 51.003906 25.953125 51.113281 25.324219 51.113281 C 24.695312 51.113281 24.082031 51.003906 23.492188 50.789062 C 22.902344 50.574219 22.363281 50.265625 21.882812 49.863281 L 21.746094 49.746094 C 21.347656 49.410156 20.902344 49.15625 20.414062 48.976562 C 19.925781 48.800781 19.421875 48.710938 18.898438 48.710938 C 18.378906 48.710938 17.875 48.800781 17.386719 48.976562 C 16.894531 49.15625 16.453125 49.410156 16.050781 49.746094 L 15.917969 49.867188 C 15.433594 50.269531 14.898438 50.578125 14.304688 50.792969 C 13.714844 51.007812 13.105469 51.113281 12.476562 51.113281 C 11.847656 51.113281 11.234375 51.007812 10.644531 50.792969 C 10.054688 50.578125 9.515625 50.269531 9.035156 49.867188 C 8.941406 49.785156 8.890625 49.679688 8.882812 49.554688 C 8.871094 49.433594 8.910156 49.324219 8.992188 49.230469 C 9.074219 49.136719 9.175781 49.085938 9.300781 49.078125 C 9.425781 49.070312 9.535156 49.105469 9.628906 49.1875 C 10.027344 49.523438 10.472656 49.777344 10.960938 49.953125 C 11.449219 50.132812 11.957031 50.21875 12.476562 50.21875 C 12.996094 50.21875 13.5 50.132812 13.988281 49.953125 C 14.480469 49.777344 14.921875 49.523438 15.324219 49.1875 L 15.457031 49.070312 C 15.941406 48.664062 16.476562 48.355469 17.070312 48.140625 C 17.660156 47.925781 18.269531 47.820312 18.898438 47.820312 C 19.527344 47.820312 20.136719 47.925781 20.730469 48.140625 C 21.320312 48.355469 21.859375 48.664062 22.339844 49.070312 L 22.476562 49.1875 C 22.875 49.523438 23.320312 49.777344 23.808594 49.957031 C 24.296875 50.132812 24.804688 50.222656 25.324219 50.222656 C 25.84375 50.222656 26.347656 50.132812 26.835938 49.957031 C 27.328125 49.777344 27.769531 49.523438 28.171875 49.1875 L 28.304688 49.070312 C 28.785156 48.664062 29.324219 48.355469 29.914062 48.140625 C 30.507812 47.925781 31.117188 47.820312 31.746094 47.820312 C 32.375 47.820312 32.984375 47.925781 33.578125 48.140625 C 34.167969 48.355469 34.707031 48.664062 35.1875 49.070312 L 35.324219 49.1875 C 35.722656 49.523438 36.167969 49.777344 36.65625 49.957031 C 37.144531 50.132812 37.652344 50.222656 38.171875 50.222656 C 38.691406 50.222656 39.195312 50.132812 39.683594 49.957031 C 40.175781 49.777344 40.617188 49.523438 41.019531 49.1875 L 41.152344 49.070312 C 41.632812 48.664062 42.171875 48.355469 42.761719 48.140625 C 43.355469 47.925781 43.964844 47.820312 44.59375 47.820312 C 45.222656 47.820312 45.832031 47.925781 46.425781 48.140625 C 47.015625 48.355469 47.554688 48.664062 48.035156 49.070312 L 48.167969 49.1875 C 48.570312 49.523438 49.011719 49.777344 49.503906 49.953125 C 49.992188 50.132812 50.496094 50.21875 51.015625 50.21875 C 51.539062 50.21875 52.042969 50.132812 52.53125 49.953125 C 53.019531 49.777344 53.464844 49.523438 53.863281 49.1875 L 54 49.070312 C 54.480469 48.664062 55.019531 48.355469 55.609375 48.140625 C 56.203125 47.925781 56.8125 47.820312 57.441406 47.820312 C 58.070312 47.820312 58.679688 47.925781 59.273438 48.140625 C 59.863281 48.355469 60.402344 48.664062 60.882812 49.070312 L 61.015625 49.1875 C 61.417969 49.523438 61.859375 49.777344 62.351562 49.953125 C 62.839844 50.132812 63.34375 50.21875 63.863281 50.21875 C 64.386719 50.21875 64.890625 50.132812 65.378906 49.953125 C 65.867188 49.777344 66.3125 49.523438 66.714844 49.1875 C 66.808594 49.117188 66.914062 49.089844 67.027344 49.097656 C 67.144531 49.109375 67.242188 49.160156 67.320312 49.25 C 67.398438 49.335938 67.4375 49.4375 67.433594 49.554688 C 67.433594 49.671875 67.390625 49.773438 67.308594 49.859375 C 66.316406 50.707031 65.167969 51.121094 63.867188 51.109375 Z M 63.867188 51.109375 " fill-opacity="1" fill-rule="nonzero"/></g><g clip-path="url(#f835bbba96)"><path fill="#1f6040" d="M 38.171875 56.167969 C 36.867188 56.179688 35.71875 55.765625 34.730469 54.917969 L 34.59375 54.800781 C 34.195312 54.464844 33.75 54.210938 33.261719 54.03125 C 32.773438 53.855469 32.265625 53.765625 31.746094 53.765625 C 31.226562 53.765625 30.722656 53.855469 30.234375 54.03125 C 29.742188 54.210938 29.300781 54.464844 28.898438 54.800781 L 28.765625 54.917969 C 28.28125 55.324219 27.746094 55.632812 27.152344 55.847656 C 26.5625 56.0625 25.953125 56.167969 25.324219 56.167969 C 24.695312 56.167969 24.082031 56.0625 23.492188 55.847656 C 22.902344 55.632812 22.363281 55.324219 21.882812 54.917969 L 21.746094 54.800781 C 21.347656 54.46875 20.902344 54.210938 20.414062 54.035156 C 19.925781 53.859375 19.421875 53.769531 18.898438 53.769531 C 18.378906 53.769531 17.875 53.859375 17.386719 54.035156 C 16.894531 54.210938 16.453125 54.46875 16.050781 54.800781 L 15.917969 54.921875 C 15.433594 55.324219 14.898438 55.636719 14.304688 55.847656 C 13.714844 56.0625 13.105469 56.171875 12.476562 56.171875 C 11.847656 56.171875 11.234375 56.0625 10.644531 55.847656 C 10.054688 55.636719 9.515625 55.324219 9.035156 54.921875 C 8.941406 54.839844 8.890625 54.738281 8.882812 54.613281 C 8.875 54.488281 8.910156 54.378906 8.992188 54.285156 C 9.074219 54.191406 9.179688 54.140625 9.300781 54.132812 C 9.425781 54.125 9.535156 54.164062 9.628906 54.246094 C 10.027344 54.578125 10.472656 54.835938 10.960938 55.011719 C 11.449219 55.191406 11.957031 55.277344 12.476562 55.277344 C 12.996094 55.277344 13.5 55.191406 13.992188 55.011719 C 14.480469 54.835938 14.925781 54.578125 15.324219 54.246094 L 15.460938 54.125 C 15.941406 53.722656 16.480469 53.414062 17.070312 53.199219 C 17.660156 52.984375 18.269531 52.875 18.898438 52.875 C 19.527344 52.875 20.140625 52.984375 20.730469 53.199219 C 21.320312 53.414062 21.859375 53.722656 22.339844 54.125 L 22.460938 54.234375 C 22.859375 54.566406 23.304688 54.824219 23.796875 55.003906 C 24.285156 55.183594 24.792969 55.273438 25.3125 55.273438 C 25.835938 55.277344 26.339844 55.1875 26.832031 55.011719 C 27.324219 54.832031 27.769531 54.578125 28.167969 54.242188 L 28.304688 54.125 C 28.785156 53.71875 29.324219 53.410156 29.914062 53.195312 C 30.507812 52.980469 31.117188 52.875 31.746094 52.875 C 32.375 52.875 32.984375 52.980469 33.574219 53.195312 C 34.167969 53.410156 34.703125 53.71875 35.1875 54.125 L 35.320312 54.242188 C 35.722656 54.578125 36.164062 54.832031 36.65625 55.011719 C 37.144531 55.1875 37.648438 55.277344 38.167969 55.277344 C 38.691406 55.277344 39.195312 55.1875 39.683594 55.011719 C 40.171875 54.832031 40.617188 54.578125 41.015625 54.242188 L 41.152344 54.125 C 41.632812 53.71875 42.171875 53.410156 42.761719 53.195312 C 43.351562 52.980469 43.964844 52.875 44.59375 52.875 C 45.222656 52.875 45.832031 52.980469 46.421875 53.195312 C 47.015625 53.410156 47.550781 53.71875 48.035156 54.125 L 48.167969 54.242188 C 48.566406 54.578125 49.011719 54.832031 49.5 55.007812 C 49.988281 55.1875 50.496094 55.273438 51.015625 55.273438 C 51.535156 55.273438 52.039062 55.1875 52.53125 55.007812 C 53.019531 54.832031 53.464844 54.578125 53.863281 54.242188 L 54 54.125 C 54.480469 53.71875 55.019531 53.410156 55.609375 53.195312 C 56.203125 52.984375 56.8125 52.875 57.441406 52.875 C 58.070312 52.875 58.679688 52.984375 59.269531 53.199219 C 59.863281 53.414062 60.398438 53.722656 60.882812 54.125 L 61.015625 54.246094 C 61.414062 54.578125 61.859375 54.835938 62.347656 55.011719 C 62.839844 55.1875 63.34375 55.277344 63.863281 55.277344 C 64.382812 55.277344 64.890625 55.1875 65.378906 55.011719 C 65.867188 54.835938 66.3125 54.578125 66.710938 54.246094 C 66.804688 54.167969 66.914062 54.132812 67.035156 54.144531 C 67.15625 54.152344 67.257812 54.203125 67.339844 54.296875 C 67.417969 54.386719 67.457031 54.492188 67.449219 54.617188 C 67.445312 54.738281 67.394531 54.839844 67.304688 54.921875 C 66.824219 55.328125 66.285156 55.636719 65.695312 55.851562 C 65.105469 56.066406 64.492188 56.171875 63.863281 56.171875 C 63.234375 56.171875 62.625 56.066406 62.035156 55.851562 C 61.441406 55.636719 60.90625 55.328125 60.421875 54.921875 L 60.289062 54.804688 C 59.890625 54.472656 59.445312 54.214844 58.957031 54.039062 C 58.464844 53.863281 57.960938 53.773438 57.441406 53.773438 C 56.921875 53.773438 56.414062 53.863281 55.925781 54.039062 C 55.4375 54.214844 54.992188 54.472656 54.59375 54.804688 L 54.457031 54.925781 C 53.976562 55.328125 53.4375 55.636719 52.847656 55.851562 C 52.253906 56.066406 51.644531 56.175781 51.015625 56.175781 C 50.386719 56.175781 49.777344 56.066406 49.1875 55.851562 C 48.59375 55.636719 48.058594 55.328125 47.574219 54.925781 L 47.457031 54.820312 C 47.054688 54.484375 46.613281 54.226562 46.121094 54.046875 C 45.632812 53.867188 45.125 53.777344 44.605469 53.777344 C 44.082031 53.777344 43.574219 53.863281 43.085938 54.042969 C 42.59375 54.21875 42.148438 54.472656 41.746094 54.808594 L 41.613281 54.929688 C 40.621094 55.769531 39.472656 56.183594 38.171875 56.167969 Z M 38.171875 56.167969 " fill-opacity="1" fill-rule="nonzero"/></g><g clip-path="url(#a0ecd9e731)"><path fill="#1f6040" d="M 12.476562 46.050781 C 11.171875 46.0625 10.023438 45.644531 9.035156 44.800781 C 8.941406 44.71875 8.890625 44.617188 8.882812 44.492188 C 8.871094 44.367188 8.910156 44.257812 8.992188 44.164062 C 9.074219 44.070312 9.175781 44.019531 9.300781 44.011719 C 9.425781 44.003906 9.535156 44.042969 9.628906 44.125 C 10.027344 44.457031 10.472656 44.714844 10.960938 44.890625 C 11.449219 45.066406 11.953125 45.15625 12.476562 45.15625 C 12.996094 45.15625 13.5 45.066406 13.988281 44.890625 C 14.480469 44.714844 14.921875 44.457031 15.324219 44.125 L 15.457031 44.003906 C 15.941406 43.601562 16.476562 43.292969 17.066406 43.078125 C 17.660156 42.863281 18.269531 42.753906 18.898438 42.753906 C 19.527344 42.753906 20.136719 42.863281 20.730469 43.078125 C 21.320312 43.292969 21.859375 43.601562 22.339844 44.003906 L 22.476562 44.125 C 22.875 44.457031 23.320312 44.710938 23.808594 44.890625 C 24.296875 45.066406 24.804688 45.15625 25.324219 45.15625 C 25.84375 45.15625 26.347656 45.066406 26.835938 44.890625 C 27.328125 44.710938 27.769531 44.457031 28.171875 44.125 L 28.304688 44.003906 C 28.785156 43.601562 29.324219 43.292969 29.914062 43.078125 C 30.507812 42.863281 31.117188 42.753906 31.746094 42.753906 C 32.375 42.753906 32.984375 42.863281 33.578125 43.078125 C 34.167969 43.292969 34.707031 43.601562 35.1875 44.003906 L 35.324219 44.125 C 35.722656 44.457031 36.167969 44.710938 36.65625 44.890625 C 37.144531 45.066406 37.652344 45.15625 38.171875 45.15625 C 38.691406 45.15625 39.195312 45.066406 39.683594 44.890625 C 40.175781 44.710938 40.617188 44.457031 41.019531 44.125 L 41.152344 44.003906 C 41.632812 43.601562 42.171875 43.292969 42.761719 43.078125 C 43.355469 42.863281 43.964844 42.753906 44.59375 42.753906 C 45.222656 42.753906 45.832031 42.863281 46.425781 43.078125 C 47.015625 43.292969 47.550781 43.601562 48.035156 44.003906 L 48.167969 44.121094 C 48.570312 44.453125 49.011719 44.710938 49.503906 44.886719 C 49.992188 45.066406 50.496094 45.152344 51.015625 45.152344 C 51.539062 45.152344 52.042969 45.066406 52.53125 44.886719 C 53.019531 44.710938 53.464844 44.453125 53.863281 44.121094 L 54 44 C 54.480469 43.597656 55.019531 43.289062 55.609375 43.074219 C 56.203125 42.859375 56.8125 42.753906 57.441406 42.753906 C 58.070312 42.753906 58.679688 42.859375 59.273438 43.074219 C 59.863281 43.289062 60.398438 43.597656 60.882812 44 L 61.015625 44.117188 C 61.417969 44.453125 61.859375 44.707031 62.351562 44.882812 C 62.839844 45.0625 63.34375 45.152344 63.863281 45.152344 C 64.386719 45.152344 64.890625 45.0625 65.378906 44.882812 C 65.871094 44.707031 66.3125 44.453125 66.714844 44.117188 C 66.804688 44.03125 66.917969 43.992188 67.042969 43.996094 C 67.167969 44.003906 67.273438 44.054688 67.359375 44.152344 C 67.441406 44.246094 67.480469 44.355469 67.46875 44.484375 C 67.457031 44.609375 67.40625 44.714844 67.308594 44.792969 C 66.824219 45.199219 66.289062 45.507812 65.695312 45.722656 C 65.105469 45.9375 64.496094 46.042969 63.867188 46.042969 C 63.238281 46.042969 62.625 45.9375 62.035156 45.722656 C 61.445312 45.507812 60.90625 45.199219 60.421875 44.792969 L 60.289062 44.675781 C 59.890625 44.339844 59.445312 44.085938 58.957031 43.910156 C 58.46875 43.730469 57.960938 43.640625 57.441406 43.640625 C 56.921875 43.640625 56.417969 43.730469 55.925781 43.910156 C 55.4375 44.085938 54.992188 44.339844 54.59375 44.675781 L 54.460938 44.792969 C 53.976562 45.199219 53.441406 45.507812 52.847656 45.722656 C 52.257812 45.9375 51.648438 46.042969 51.019531 46.042969 C 50.390625 46.042969 49.777344 45.9375 49.1875 45.722656 C 48.597656 45.507812 48.058594 45.199219 47.578125 44.792969 L 47.441406 44.675781 C 47.042969 44.339844 46.597656 44.085938 46.109375 43.910156 C 45.617188 43.730469 45.113281 43.640625 44.59375 43.640625 C 44.074219 43.640625 43.570312 43.730469 43.078125 43.910156 C 42.589844 44.085938 42.144531 44.339844 41.746094 44.675781 L 41.613281 44.792969 C 41.128906 45.199219 40.59375 45.507812 40 45.722656 C 39.410156 45.9375 38.800781 46.042969 38.171875 46.042969 C 37.542969 46.042969 36.929688 45.9375 36.339844 45.722656 C 35.746094 45.507812 35.210938 45.199219 34.726562 44.792969 L 34.59375 44.675781 C 34.195312 44.339844 33.75 44.085938 33.261719 43.910156 C 32.769531 43.730469 32.265625 43.640625 31.746094 43.640625 C 31.226562 43.640625 30.722656 43.730469 30.230469 43.910156 C 29.742188 44.085938 29.296875 44.339844 28.898438 44.675781 L 28.765625 44.792969 C 28.28125 45.199219 27.746094 45.507812 27.152344 45.722656 C 26.5625 45.9375 25.953125 46.042969 25.324219 46.042969 C 24.695312 46.042969 24.082031 45.9375 23.492188 45.722656 C 22.902344 45.507812 22.363281 45.199219 21.882812 44.792969 L 21.746094 44.675781 C 21.347656 44.339844 20.902344 44.085938 20.414062 43.90625 C 19.925781 43.730469 19.421875 43.640625 18.898438 43.640625 C 18.378906 43.640625 17.875 43.730469 17.382812 43.90625 C 16.894531 44.085938 16.449219 44.339844 16.050781 44.675781 L 15.917969 44.792969 C 14.925781 45.644531 13.78125 46.0625 12.476562 46.050781 Z M 12.476562 46.050781 " fill-opacity="1" fill-rule="nonzero"/></g><path fill="#1f6040" d="M 52.371094 34.335938 L 47.828125 42.746094 C 47.265625 42.414062 46.667969 42.171875 46.03125 42.023438 C 45.394531 41.875 44.75 41.824219 44.097656 41.878906 C 43.445312 41.929688 42.816406 42.082031 42.210938 42.328125 C 41.609375 42.574219 41.054688 42.910156 40.554688 43.328125 L 40.421875 43.445312 C 40.105469 43.707031 39.753906 43.90625 39.367188 44.046875 C 38.976562 44.183594 38.578125 44.253906 38.167969 44.253906 C 37.757812 44.253906 37.359375 44.183594 36.96875 44.046875 C 36.582031 43.90625 36.230469 43.707031 35.914062 43.445312 L 35.78125 43.328125 C 35.21875 42.855469 34.585938 42.492188 33.894531 42.238281 C 33.199219 41.984375 32.484375 41.859375 31.746094 41.859375 C 31.007812 41.859375 30.289062 41.984375 29.597656 42.238281 C 28.902344 42.492188 28.273438 42.855469 27.707031 43.328125 L 27.574219 43.445312 C 27.257812 43.707031 26.90625 43.90625 26.519531 44.046875 C 26.132812 44.183594 25.734375 44.253906 25.320312 44.253906 C 24.910156 44.253906 24.511719 44.183594 24.125 44.046875 C 23.738281 43.90625 23.386719 43.707031 23.070312 43.445312 L 22.9375 43.328125 C 21.777344 42.332031 20.429688 41.84375 18.898438 41.859375 C 18 41.851562 17.136719 42.035156 16.316406 42.40625 L 11.960938 34.335938 Z M 52.371094 34.335938 " fill-opacity="1" fill-rule="nonzero"/><path fill="#1f6040" d="M 45.023438 28.164062 C 45.023438 28.363281 44.984375 28.554688 44.910156 28.738281 C 44.832031 28.925781 44.722656 29.085938 44.582031 29.226562 C 44.441406 29.367188 44.28125 29.476562 44.097656 29.554688 C 43.910156 29.628906 43.71875 29.667969 43.519531 29.667969 L 38.019531 29.667969 C 37.585938 29.667969 37.222656 29.511719 36.925781 29.199219 L 33.765625 25.871094 C 33.519531 26.289062 33.210938 26.65625 32.84375 26.96875 C 31.023438 28.769531 29.851562 30.925781 29.328125 33.433594 L 20.792969 33.433594 C 21.117188 30.960938 21.847656 28.613281 22.992188 26.394531 C 24.136719 24.175781 25.621094 22.214844 27.449219 20.515625 C 27.660156 20.339844 27.890625 20.1875 28.132812 20.054688 C 28.375 19.921875 28.628906 19.816406 28.890625 19.734375 C 29.15625 19.65625 29.425781 19.597656 29.699219 19.570312 C 29.972656 19.542969 30.25 19.542969 30.523438 19.566406 C 30.800781 19.59375 31.070312 19.644531 31.332031 19.726562 C 31.597656 19.804688 31.851562 19.910156 32.097656 20.039062 C 32.339844 20.167969 32.570312 20.320312 32.78125 20.492188 C 32.996094 20.667969 33.191406 20.863281 33.367188 21.074219 C 33.398438 21.113281 33.421875 21.148438 33.445312 21.175781 L 38.660156 26.664062 L 43.519531 26.664062 C 43.71875 26.664062 43.914062 26.699219 44.097656 26.777344 C 44.28125 26.851562 44.445312 26.960938 44.585938 27.101562 C 44.726562 27.242188 44.832031 27.40625 44.910156 27.589844 C 44.984375 27.773438 45.023438 27.964844 45.023438 28.164062 Z M 45.023438 28.164062 " fill-opacity="1" fill-rule="nonzero"/><path fill="#1f6040" d="M 41.808594 30.566406 C 41.761719 31.078125 41.738281 31.597656 41.726562 32.125 C 41.722656 32.246094 41.675781 32.351562 41.589844 32.4375 C 41.5 32.523438 41.398438 32.566406 41.273438 32.570312 L 41.261719 32.570312 C 41.136719 32.566406 41.035156 32.519531 40.949219 32.425781 C 40.863281 32.335938 40.820312 32.230469 40.824219 32.105469 C 40.835938 31.589844 40.859375 31.074219 40.90625 30.566406 Z M 41.808594 30.566406 " fill-opacity="1" fill-rule="nonzero"/><path fill="#1f6040" d="M 56.710938 16.28125 C 53.945312 16.558594 51.351562 17.367188 48.921875 18.714844 C 47.578125 19.484375 46.394531 20.445312 45.367188 21.605469 C 44.289062 22.84375 43.460938 24.226562 42.878906 25.761719 L 41.917969 25.761719 C 42.535156 24 43.460938 22.414062 44.691406 21.007812 C 45.78125 19.777344 47.039062 18.753906 48.464844 17.9375 C 51.023438 16.519531 53.757812 15.664062 56.667969 15.378906 C 56.65625 15.484375 56.648438 15.589844 56.648438 15.699219 C 56.648438 15.894531 56.667969 16.089844 56.710938 16.28125 Z M 56.710938 16.28125 " fill-opacity="1" fill-rule="nonzero"/><path fill="#1f6040" d="M 60.074219 18.628906 L 60.074219 42.421875 C 59.78125 42.289062 59.480469 42.179688 59.171875 42.097656 L 59.171875 18.628906 C 59.472656 18.6875 59.773438 18.6875 60.074219 18.628906 Z M 60.074219 18.628906 " fill-opacity="1" fill-rule="nonzero"/><g clip-path="url(#2978b22764)"><path fill="#1f6040" d="M 40.0625 17.234375 C 40.0625 17.710938 39.96875 18.171875 39.785156 18.613281 C 39.605469 19.054688 39.34375 19.445312 39.003906 19.785156 C 38.667969 20.121094 38.277344 20.382812 37.835938 20.566406 C 37.394531 20.746094 36.933594 20.839844 36.457031 20.839844 C 35.976562 20.839844 35.519531 20.746094 35.078125 20.566406 C 34.636719 20.382812 34.246094 20.121094 33.90625 19.785156 C 33.570312 19.445312 33.308594 19.054688 33.125 18.613281 C 32.941406 18.171875 32.851562 17.710938 32.851562 17.234375 C 32.851562 16.757812 32.941406 16.296875 33.125 15.855469 C 33.308594 15.414062 33.570312 15.023438 33.90625 14.683594 C 34.246094 14.347656 34.636719 14.085938 35.078125 13.902344 C 35.519531 13.722656 35.976562 13.628906 36.457031 13.628906 C 36.933594 13.628906 37.394531 13.722656 37.835938 13.902344 C 38.277344 14.085938 38.667969 14.347656 39.003906 14.683594 C 39.34375 15.023438 39.605469 15.414062 39.785156 15.855469 C 39.96875 16.296875 40.0625 16.757812 40.0625 17.234375 Z M 40.0625 17.234375 " fill-opacity="1" fill-rule="nonzero"/></g><path fill="#1f6040" d="M 49.609375 20.367188 L 46.902344 22.613281 C 46.777344 22.71875 46.628906 22.761719 46.464844 22.746094 C 46.300781 22.730469 46.164062 22.660156 46.058594 22.535156 L 45.914062 22.359375 C 45.953125 22.308594 45.996094 22.253906 46.042969 22.199219 C 47.007812 21.117188 48.117188 20.214844 49.375 19.496094 C 49.4375 19.460938 49.503906 19.417969 49.570312 19.382812 L 49.6875 19.519531 C 49.789062 19.648438 49.835938 19.792969 49.820312 19.957031 C 49.804688 20.125 49.734375 20.257812 49.609375 20.367188 Z M 49.609375 20.367188 " fill-opacity="1" fill-rule="nonzero"/><g clip-path="url(#574a62d384)"><path fill="#1f6040" d="M 59.621094 13.628906 C 59.34375 13.628906 59.082031 13.683594 58.828125 13.789062 C 58.574219 13.890625 58.351562 14.042969 58.15625 14.234375 C 57.960938 14.429688 57.8125 14.652344 57.707031 14.90625 C 57.601562 15.160156 57.550781 15.425781 57.550781 15.699219 C 57.550781 15.972656 57.601562 16.238281 57.707031 16.492188 C 57.8125 16.746094 57.960938 16.96875 58.15625 17.164062 C 58.351562 17.355469 58.574219 17.507812 58.828125 17.613281 C 59.082031 17.71875 59.34375 17.769531 59.621094 17.769531 C 59.894531 17.769531 60.160156 17.71875 60.410156 17.613281 C 60.664062 17.507812 60.890625 17.355469 61.082031 17.164062 C 61.277344 16.96875 61.425781 16.746094 61.53125 16.492188 C 61.636719 16.238281 61.691406 15.972656 61.691406 15.699219 C 61.691406 15.425781 61.636719 15.160156 61.53125 14.90625 C 61.425781 14.652344 61.277344 14.429688 61.082031 14.234375 C 60.890625 14.042969 60.664062 13.890625 60.410156 13.789062 C 60.160156 13.683594 59.894531 13.628906 59.621094 13.628906 Z M 59.621094 13.628906 " fill-opacity="1" fill-rule="nonzero"/></g></svg>