<svg xmlns="http://www.w3.org/2000/svg" xmlns:xlink="http://www.w3.org/1999/xlink" width="100" zoomAndPan="magnify" viewBox="0 0 75 74.999997" height="100" preserveAspectRatio="xMidYMid meet" version="1.0"><defs><clipPath id="fe802c2050"><path d="M 2.851562 3.300781 L 72.449219 3.300781 L 72.449219 72.898438 L 2.851562 72.898438 Z M 2.851562 3.300781 " clip-rule="nonzero"/></clipPath><clipPath id="db0454cc06"><path d="M 37.648438 3.300781 C 18.429688 3.300781 2.851562 18.878906 2.851562 38.101562 C 2.851562 57.320312 18.429688 72.898438 37.648438 72.898438 C 56.871094 72.898438 72.449219 57.320312 72.449219 38.101562 C 72.449219 18.878906 56.871094 3.300781 37.648438 3.300781 Z M 37.648438 3.300781 " clip-rule="nonzero"/></clipPath><clipPath id="06bd9f5e5a"><path d="M 22.582031 16.382812 L 52.582031 16.382812 L 52.582031 59.882812 L 22.582031 59.882812 Z M 22.582031 16.382812 " clip-rule="nonzero"/></clipPath></defs><g clip-path="url(#fe802c2050)"><g clip-path="url(#db0454cc06)"><path fill="#d68205" d="M 2.851562 3.300781 L 72.449219 3.300781 L 72.449219 72.898438 L 2.851562 72.898438 Z M 2.851562 3.300781 " fill-opacity="1" fill-rule="nonzero"/></g></g><g clip-path="url(#06bd9f5e5a)"><path fill="#1f6040" d="M 37.648438 16.375 C 29.332031 16.375 22.59375 23.117188 22.59375 31.429688 C 22.59375 32.8125 22.785156 34.152344 23.132812 35.421875 C 23.4375 36.53125 23.859375 37.589844 24.398438 38.578125 C 24.527344 38.816406 24.664062 39.054688 24.804688 39.285156 L 36.152344 58.945312 C 36.175781 58.984375 36.199219 59.03125 36.226562 59.070312 C 36.539062 59.523438 37.058594 59.816406 37.648438 59.816406 C 38.238281 59.816406 38.757812 59.515625 39.070312 59.066406 L 39.117188 58.980469 L 50.488281 39.289062 L 50.898438 38.578125 C 51.433594 37.585938 51.855469 36.527344 52.160156 35.421875 C 52.511719 34.152344 52.699219 32.8125 52.699219 31.429688 C 52.699219 23.117188 45.960938 16.375 37.648438 16.375 Z M 37.648438 37.742188 C 34.160156 37.742188 31.335938 34.914062 31.335938 31.429688 C 31.335938 27.945312 34.160156 25.117188 37.648438 25.117188 C 41.132812 25.117188 43.957031 27.945312 43.957031 31.429688 C 43.957031 34.914062 41.132812 37.742188 37.648438 37.742188 Z M 37.648438 37.742188 " fill-opacity="1" fill-rule="nonzero"/></g></svg>