<svg xmlns="http://www.w3.org/2000/svg" xmlns:xlink="http://www.w3.org/1999/xlink" width="100" zoomAndPan="magnify" viewBox="0 0 75 74.999997" height="100" preserveAspectRatio="xMidYMid meet" version="1.0"><defs><clipPath id="d0891efec9"><path d="M 2.851562 3.300781 L 72.449219 3.300781 L 72.449219 72.898438 L 2.851562 72.898438 Z M 2.851562 3.300781 " clip-rule="nonzero"/></clipPath><clipPath id="2ec54e8829"><path d="M 37.648438 3.300781 C 18.429688 3.300781 2.851562 18.878906 2.851562 38.101562 C 2.851562 57.320312 18.429688 72.898438 37.648438 72.898438 C 56.871094 72.898438 72.449219 57.320312 72.449219 38.101562 C 72.449219 18.878906 56.871094 3.300781 37.648438 3.300781 Z M 37.648438 3.300781 " clip-rule="nonzero"/></clipPath><clipPath id="38c54e8b40"><path d="M 17.023438 21 L 58.273438 21 L 58.273438 68.535156 L 17.023438 68.535156 Z M 17.023438 21 " clip-rule="nonzero"/></clipPath><clipPath id="6aa3fab3dd"><path d="M 35 8.101562 L 51 8.101562 L 51 22 L 35 22 Z M 35 8.101562 " clip-rule="nonzero"/></clipPath></defs><g clip-path="url(#d0891efec9)"><g clip-path="url(#2ec54e8829)"><path fill="#d68205" d="M 2.851562 3.300781 L 72.449219 3.300781 L 72.449219 72.898438 L 2.851562 72.898438 Z M 2.851562 3.300781 " fill-opacity="1" fill-rule="nonzero"/></g></g><g clip-path="url(#38c54e8b40)"><path fill="#1f6040" d="M 24.550781 36.800781 C 24.8125 36.792969 25.027344 37.003906 25.03125 37.265625 C 25.03125 37.269531 25.03125 37.269531 25.03125 37.277344 C 25.042969 37.539062 24.839844 37.761719 24.582031 37.773438 C 24.320312 37.789062 24.09375 37.585938 24.085938 37.324219 C 24.078125 37.308594 24.078125 37.292969 24.085938 37.277344 C 24.078125 37.019531 24.289062 36.800781 24.550781 36.800781 Z M 49.375 31.902344 C 49.390625 31.902344 49.402344 31.90625 49.417969 31.917969 L 50.8125 33.144531 C 50.835938 33.171875 50.835938 33.203125 50.8125 33.230469 L 49.308594 35.332031 L 49.308594 31.960938 C 49.308594 31.949219 49.308594 31.941406 49.308594 31.929688 C 49.320312 31.914062 49.335938 31.90625 49.351562 31.90625 C 49.359375 31.902344 49.363281 31.902344 49.363281 31.90625 Z M 25.242188 21.824219 C 23.542969 21.839844 22.191406 23.226562 22.207031 24.917969 C 22.214844 25.8125 22.605469 26.652344 23.285156 27.226562 L 24.699219 28.414062 L 24.699219 34.488281 C 24.648438 34.445312 24.585938 34.40625 24.527344 34.375 C 24.234375 34.203125 23.863281 34.296875 23.683594 34.574219 C 22.0625 37.09375 20.996094 39.929688 20.558594 42.890625 C 19.246094 43.4375 18.089844 44.304688 17.195312 45.40625 C 16.929688 45.738281 16.980469 46.226562 17.308594 46.492188 C 17.378906 46.546875 17.453125 46.589844 17.535156 46.621094 C 19.191406 47.238281 20.421875 48.664062 20.777344 50.40625 C 21.402344 53.832031 22.453125 57.171875 23.890625 60.339844 C 23.949219 60.476562 23.898438 60.640625 23.769531 60.707031 C 22.136719 61.546875 20.792969 62.847656 19.898438 64.449219 C 19.707031 64.78125 19.824219 65.210938 20.160156 65.402344 C 20.445312 65.5625 20.796875 65.503906 21.019531 65.269531 C 23.179688 62.984375 26.789062 62.882812 29.074219 65.039062 C 29.148438 65.113281 29.222656 65.1875 29.296875 65.269531 C 29.566406 65.542969 30.007812 65.550781 30.28125 65.277344 C 30.507812 65.058594 30.5625 64.722656 30.410156 64.445312 C 29.523438 62.855469 28.191406 61.558594 26.574219 60.71875 C 26.433594 60.644531 26.386719 60.476562 26.449219 60.34375 C 28.859375 55.367188 30.171875 49.933594 30.304688 44.40625 C 30.304688 40.660156 28.9375 37.039062 26.464844 34.230469 C 26.234375 33.96875 25.839844 33.941406 25.582031 34.171875 C 25.554688 34.195312 25.535156 34.214844 25.511719 34.242188 L 25.511719 29.09375 L 30.570312 33.328125 C 31.230469 33.882812 32.183594 33.941406 32.90625 33.464844 L 36.601562 31.058594 L 36.601562 44.421875 L 35.097656 65.269531 C 34.992188 66.960938 36.273438 68.414062 37.960938 68.527344 C 39.632812 68.636719 41.082031 67.382812 41.21875 65.710938 L 42.558594 47.109375 C 42.578125 46.984375 42.683594 46.898438 42.804688 46.914062 C 42.898438 46.925781 42.976562 46.996094 42.992188 47.09375 L 45.820312 65.535156 C 46.109375 67.207031 47.691406 68.324219 49.359375 68.039062 C 50.984375 67.761719 52.097656 66.242188 51.878906 64.609375 L 48.859375 44.871094 C 49.667969 44.75 50.394531 44.304688 50.878906 43.636719 L 58.035156 33.699219 C 58.628906 32.882812 58.5 31.742188 57.738281 31.074219 L 50.203125 24.46875 C 48.988281 23.402344 47.429688 22.816406 45.816406 22.816406 L 40.003906 22.816406 C 38.710938 22.816406 37.449219 23.195312 36.363281 23.902344 L 32.183594 26.625 C 32.15625 26.640625 32.125 26.640625 32.101562 26.625 L 27.222656 22.53125 C 26.660156 22.074219 25.957031 21.824219 25.234375 21.835938 L 25.242188 21.824219 " fill-opacity="1" fill-rule="nonzero"/></g><g clip-path="url(#6aa3fab3dd)"><path fill="#1f6040" d="M 39.117188 9.226562 C 38.589844 10.355469 38.273438 11.574219 38.171875 12.816406 L 35.816406 15.257812 C 35.566406 15.519531 35.570312 15.9375 35.832031 16.1875 C 35.957031 16.304688 36.117188 16.371094 36.289062 16.371094 L 37.265625 16.371094 C 37.480469 19.550781 40.230469 21.953125 43.40625 21.738281 C 46.285156 21.546875 48.582031 19.25 48.773438 16.371094 L 49.753906 16.371094 C 50.117188 16.371094 50.410156 16.078125 50.410156 15.71875 C 50.410156 15.546875 50.347656 15.378906 50.226562 15.257812 L 47.871094 12.816406 C 47.773438 11.574219 47.453125 10.355469 46.921875 9.226562 C 46.648438 8.640625 46.066406 8.265625 45.417969 8.265625 L 40.621094 8.265625 C 39.980469 8.265625 39.390625 8.640625 39.117188 9.226562 " fill-opacity="1" fill-rule="nonzero"/></g></svg>