<svg xmlns="http://www.w3.org/2000/svg" xmlns:xlink="http://www.w3.org/1999/xlink" width="100" zoomAndPan="magnify" viewBox="0 0 75 74.999997" height="100" preserveAspectRatio="xMidYMid meet" version="1.0"><defs><clipPath id="4995a054b9"><path d="M 2.851562 3.300781 L 72.449219 3.300781 L 72.449219 72.898438 L 2.851562 72.898438 Z M 2.851562 3.300781 " clip-rule="nonzero"/></clipPath><clipPath id="c38ee07d28"><path d="M 37.648438 3.300781 C 18.429688 3.300781 2.851562 18.878906 2.851562 38.101562 C 2.851562 57.320312 18.429688 72.898438 37.648438 72.898438 C 56.871094 72.898438 72.449219 57.320312 72.449219 38.101562 C 72.449219 18.878906 56.871094 3.300781 37.648438 3.300781 Z M 37.648438 3.300781 " clip-rule="nonzero"/></clipPath><clipPath id="810fddde3a"><path d="M 11.222656 12.53125 L 63.722656 12.53125 L 63.722656 63.53125 L 11.222656 63.53125 Z M 11.222656 12.53125 " clip-rule="nonzero"/></clipPath></defs><g clip-path="url(#4995a054b9)"><g clip-path="url(#c38ee07d28)"><path fill="#d68205" d="M 2.851562 3.300781 L 72.449219 3.300781 L 72.449219 72.898438 L 2.851562 72.898438 Z M 2.851562 3.300781 " fill-opacity="1" fill-rule="nonzero"/></g></g><g clip-path="url(#810fddde3a)"><path fill="#1f6040" d="M 63.210938 28.722656 L 62.359375 28.722656 L 62.359375 27.015625 C 62.359375 26.675781 62.292969 26.351562 62.164062 26.039062 C 62.035156 25.726562 61.851562 25.449219 61.609375 25.207031 C 61.371094 24.96875 61.09375 24.785156 60.78125 24.65625 C 60.46875 24.523438 60.140625 24.460938 59.800781 24.460938 L 57.246094 24.460938 L 57.246094 21.902344 C 57.246094 21.289062 57.1875 20.679688 57.066406 20.074219 C 56.945312 19.472656 56.769531 18.886719 56.53125 18.316406 C 56.296875 17.746094 56.007812 17.207031 55.667969 16.695312 C 55.324219 16.183594 54.9375 15.710938 54.5 15.277344 C 54.066406 14.839844 53.59375 14.453125 53.082031 14.109375 C 52.570312 13.769531 52.027344 13.480469 51.460938 13.242188 C 50.890625 13.007812 50.304688 12.832031 49.703125 12.710938 C 49.097656 12.589844 48.488281 12.53125 47.871094 12.53125 L 27.421875 12.53125 C 26.804688 12.53125 26.195312 12.589844 25.59375 12.710938 C 24.988281 12.832031 24.402344 13.007812 23.832031 13.242188 C 23.265625 13.480469 22.726562 13.769531 22.214844 14.109375 C 21.703125 14.453125 21.226562 14.839844 20.792969 15.277344 C 20.359375 15.710938 19.96875 16.183594 19.628906 16.695312 C 19.285156 17.207031 18.996094 17.746094 18.761719 18.316406 C 18.527344 18.886719 18.347656 19.472656 18.226562 20.074219 C 18.109375 20.679688 18.046875 21.289062 18.046875 21.902344 L 18.046875 24.460938 L 15.492188 24.460938 C 15.152344 24.460938 14.824219 24.523438 14.511719 24.65625 C 14.199219 24.785156 13.921875 24.96875 13.683594 25.207031 C 13.445312 25.449219 13.257812 25.726562 13.128906 26.039062 C 13 26.351562 12.933594 26.675781 12.933594 27.015625 L 12.933594 28.722656 L 12.082031 28.722656 C 11.847656 28.722656 11.644531 28.804688 11.480469 28.96875 C 11.3125 29.136719 11.230469 29.335938 11.230469 29.574219 L 11.230469 34.6875 C 11.230469 34.921875 11.3125 35.121094 11.480469 35.289062 C 11.644531 35.453125 11.847656 35.539062 12.082031 35.539062 L 15.492188 35.539062 C 15.726562 35.539062 15.925781 35.453125 16.09375 35.289062 C 16.261719 35.121094 16.34375 34.921875 16.34375 34.6875 L 16.34375 29.574219 C 16.34375 29.335938 16.261719 29.136719 16.09375 28.96875 C 15.925781 28.804688 15.726562 28.722656 15.492188 28.722656 L 14.640625 28.722656 L 14.640625 27.015625 C 14.640625 26.78125 14.722656 26.582031 14.886719 26.414062 C 15.054688 26.246094 15.253906 26.164062 15.492188 26.164062 L 18.046875 26.164062 L 18.046875 55.988281 C 18.046875 56.328125 18.113281 56.65625 18.242188 56.96875 C 18.371094 57.28125 18.554688 57.558594 18.796875 57.796875 C 19.035156 58.035156 19.3125 58.222656 19.625 58.351562 C 19.9375 58.480469 20.265625 58.546875 20.605469 58.546875 L 22.308594 58.546875 C 22.308594 58.882812 22.339844 59.214844 22.40625 59.542969 C 22.472656 59.871094 22.570312 60.191406 22.699219 60.503906 C 22.824219 60.8125 22.984375 61.109375 23.167969 61.386719 C 23.355469 61.664062 23.566406 61.925781 23.804688 62.160156 C 24.042969 62.398438 24.300781 62.609375 24.582031 62.796875 C 24.859375 62.984375 25.152344 63.140625 25.464844 63.269531 C 25.773438 63.398438 26.09375 63.496094 26.421875 63.5625 C 26.753906 63.625 27.085938 63.660156 27.421875 63.660156 C 27.757812 63.660156 28.089844 63.625 28.417969 63.5625 C 28.746094 63.496094 29.066406 63.398438 29.378906 63.269531 C 29.6875 63.140625 29.984375 62.984375 30.261719 62.796875 C 30.539062 62.609375 30.800781 62.398438 31.035156 62.160156 C 31.273438 61.925781 31.484375 61.664062 31.671875 61.386719 C 31.859375 61.109375 32.015625 60.8125 32.144531 60.503906 C 32.273438 60.191406 32.371094 59.871094 32.4375 59.542969 C 32.5 59.214844 32.535156 58.882812 32.535156 58.546875 L 42.757812 58.546875 C 42.757812 58.882812 42.792969 59.214844 42.859375 59.542969 C 42.921875 59.871094 43.019531 60.191406 43.148438 60.503906 C 43.277344 60.8125 43.433594 61.109375 43.621094 61.386719 C 43.808594 61.664062 44.019531 61.925781 44.257812 62.160156 C 44.496094 62.398438 44.753906 62.609375 45.03125 62.796875 C 45.3125 62.984375 45.605469 63.140625 45.914062 63.269531 C 46.226562 63.398438 46.546875 63.496094 46.875 63.5625 C 47.203125 63.625 47.535156 63.660156 47.871094 63.660156 C 48.207031 63.660156 48.539062 63.625 48.871094 63.5625 C 49.199219 63.496094 49.519531 63.398438 49.828125 63.269531 C 50.140625 63.140625 50.433594 62.984375 50.714844 62.796875 C 50.992188 62.609375 51.25 62.398438 51.488281 62.160156 C 51.726562 61.925781 51.9375 61.664062 52.125 61.386719 C 52.308594 61.109375 52.46875 60.8125 52.597656 60.503906 C 52.726562 60.191406 52.820312 59.871094 52.886719 59.542969 C 52.953125 59.214844 52.984375 58.882812 52.984375 58.546875 L 54.691406 58.546875 C 55.027344 58.546875 55.355469 58.480469 55.667969 58.351562 C 55.980469 58.222656 56.257812 58.035156 56.496094 57.796875 C 56.738281 57.558594 56.921875 57.28125 57.050781 56.96875 C 57.179688 56.65625 57.246094 56.328125 57.246094 55.988281 L 57.246094 26.164062 L 59.800781 26.164062 C 60.039062 26.164062 60.238281 26.246094 60.40625 26.414062 C 60.570312 26.582031 60.65625 26.78125 60.65625 27.015625 L 60.65625 28.722656 L 59.800781 28.722656 C 59.566406 28.722656 59.367188 28.804688 59.199219 28.96875 C 59.035156 29.136719 58.949219 29.335938 58.949219 29.574219 L 58.949219 34.6875 C 58.949219 34.921875 59.035156 35.121094 59.199219 35.289062 C 59.367188 35.453125 59.566406 35.539062 59.800781 35.539062 L 63.210938 35.539062 C 63.445312 35.539062 63.648438 35.453125 63.8125 35.289062 C 63.980469 35.121094 64.0625 34.921875 64.0625 34.6875 L 64.0625 29.574219 C 64.0625 29.335938 63.980469 29.136719 63.8125 28.96875 C 63.648438 28.804688 63.445312 28.722656 63.210938 28.722656 Z M 29.976562 16.789062 L 45.316406 16.789062 L 45.316406 21.902344 L 29.976562 21.902344 Z M 19.75 26.164062 L 36.792969 26.164062 L 36.792969 43.207031 L 19.75 43.207031 Z M 55.542969 55.988281 C 55.542969 56.226562 55.457031 56.425781 55.292969 56.59375 C 55.125 56.757812 54.925781 56.839844 54.691406 56.839844 L 20.605469 56.839844 C 20.367188 56.839844 20.167969 56.757812 20 56.59375 C 19.835938 56.425781 19.75 56.226562 19.75 55.988281 L 19.75 44.910156 L 55.542969 44.910156 Z M 55.542969 43.207031 L 38.5 43.207031 L 38.5 26.164062 L 55.542969 26.164062 Z M 55.542969 43.207031 " fill-opacity="1" fill-rule="nonzero"/></g><path fill="#1f6040" d="M 23.253906 54.667969 C 23.410156 54.980469 23.664062 55.136719 24.011719 55.136719 L 27.421875 55.136719 C 27.769531 55.136719 28.023438 54.980469 28.179688 54.667969 L 29.882812 51.261719 C 30.011719 51.003906 30.011719 50.75 29.882812 50.492188 L 28.179688 47.085938 C 28.023438 46.773438 27.769531 46.617188 27.421875 46.617188 L 24.011719 46.617188 C 23.664062 46.617188 23.410156 46.773438 23.253906 47.085938 L 21.550781 50.492188 C 21.421875 50.75 21.421875 51.003906 21.550781 51.261719 Z M 23.253906 54.667969 " fill-opacity="1" fill-rule="nonzero"/><path fill="#1f6040" d="M 47.113281 54.667969 C 47.269531 54.980469 47.523438 55.136719 47.871094 55.136719 L 51.28125 55.136719 C 51.628906 55.136719 51.882812 54.980469 52.039062 54.667969 L 53.742188 51.261719 C 53.871094 51.003906 53.871094 50.75 53.742188 50.492188 L 52.039062 47.085938 C 51.882812 46.773438 51.628906 46.617188 51.28125 46.617188 L 47.871094 46.617188 C 47.523438 46.617188 47.269531 46.773438 47.113281 47.085938 L 45.410156 50.492188 C 45.28125 50.75 45.28125 51.003906 45.410156 51.261719 Z M 47.113281 54.667969 " fill-opacity="1" fill-rule="nonzero"/><path fill="#1f6040" d="M 31.683594 48.320312 L 43.613281 48.320312 L 43.613281 50.023438 L 31.683594 50.023438 Z M 31.683594 48.320312 " fill-opacity="1" fill-rule="nonzero"/><path fill="#1f6040" d="M 31.683594 51.730469 L 43.613281 51.730469 L 43.613281 53.433594 L 31.683594 53.433594 Z M 31.683594 51.730469 " fill-opacity="1" fill-rule="nonzero"/></svg>