<svg xmlns="http://www.w3.org/2000/svg" xmlns:xlink="http://www.w3.org/1999/xlink" width="445" zoomAndPan="magnify" viewBox="0 0 333.75 68.999997" height="92" preserveAspectRatio="xMidYMid meet" version="1.0"><defs><g/><clipPath id="aab91ac7a8"><path d="M 42.058594 0.0273438 L 291 0.0273438 L 291 26 L 42.058594 26 Z M 42.058594 0.0273438 " clip-rule="nonzero"/></clipPath></defs><g clip-path="url(#aab91ac7a8)"><path fill="#000000" d="M 258.800781 7.316406 C 256.164062 7.511719 253.515625 7.570312 250.902344 7.980469 C 249.371094 8.269531 247.859375 8.636719 246.367188 9.085938 C 244.726562 9.53125 243.0625 9.886719 241.445312 10.398438 C 239.007812 11.164062 236.582031 12.070312 234.019531 12.316406 C 230.835938 12.523438 227.632812 12.566406 224.484375 13.152344 C 222.128906 13.550781 219.757812 13.835938 217.371094 13.996094 C 216.363281 14.074219 215.359375 14.066406 214.351562 13.964844 C 210.722656 13.597656 207.488281 11.660156 204.355469 9.890625 C 202.707031 8.964844 200.980469 8.1875 199.378906 7.175781 C 198.355469 6.480469 197.292969 5.855469 196.1875 5.300781 C 193.921875 4.324219 191.558594 3.839844 189.089844 3.851562 C 187.617188 3.941406 186.152344 4.113281 184.699219 4.371094 C 179.773438 5.269531 174.765625 5.679688 169.890625 6.832031 C 167.101562 7.566406 164.507812 8.851562 161.859375 9.949219 C 159.726562 10.851562 157.511719 11.46875 155.222656 11.796875 C 152.144531 12.273438 149 12.316406 145.960938 12.917969 C 143.1875 13.4375 140.457031 14.238281 137.664062 14.449219 C 136.082031 14.601562 134.507812 14.792969 132.917969 14.878906 C 129.757812 15.023438 126.648438 14.699219 123.585938 13.910156 C 121.894531 13.453125 120.183594 13.089844 118.453125 12.820312 C 116.222656 12.550781 114.019531 12.128906 111.847656 11.5625 C 110.300781 11.054688 108.808594 10.417969 107.371094 9.65625 C 104.402344 8.21875 101.148438 7.441406 98.1875 6.023438 C 95.265625 4.535156 92.167969 3.761719 88.890625 3.695312 C 87.179688 3.648438 85.464844 3.695312 83.753906 3.617188 C 82.777344 3.5625 81.796875 3.523438 80.820312 3.554688 C 78.410156 3.648438 76.019531 3.929688 73.652344 4.390625 C 72.167969 4.609375 70.660156 4.628906 69.167969 4.753906 C 66.757812 5.195312 64.574219 6.402344 62.292969 7.269531 C 60.867188 7.863281 59.414062 8.382812 57.9375 8.828125 C 57.066406 9.074219 56.195312 9.265625 55.34375 9.585938 C 54.253906 9.980469 53.234375 10.542969 52.160156 10.984375 C 51.085938 11.425781 50.085938 11.765625 49.050781 12.144531 C 48.011719 12.523438 47.113281 13.023438 46.15625 13.46875 C 44.964844 13.988281 43.683594 14.320312 42.695312 15.210938 C 42.65625 15.414062 42.449219 15.617188 42.25 15.535156 C 42.105469 15.488281 42.042969 15.390625 42.0625 15.238281 C 42.085938 15.070312 42.160156 14.925781 42.289062 14.8125 C 42.410156 14.695312 42.539062 14.585938 42.679688 14.492188 C 42.800781 14.414062 42.921875 14.34375 43.050781 14.285156 C 43.65625 14.003906 44.226562 13.648438 44.800781 13.3125 C 46.023438 12.613281 47.292969 12.019531 48.609375 11.527344 C 49.597656 11 50.609375 10.527344 51.648438 10.109375 C 52.730469 9.714844 53.835938 9.382812 54.960938 9.117188 C 56.410156 8.632812 57.78125 7.949219 59.1875 7.351562 C 61.261719 6.453125 63.394531 5.707031 65.539062 4.988281 C 67.011719 4.515625 68.53125 4.226562 70.003906 3.738281 C 71.410156 3.277344 72.851562 2.953125 74.320312 2.765625 C 76.738281 2.511719 79.160156 2.320312 81.582031 2.054688 C 82.941406 1.90625 84.304688 1.90625 85.667969 2.054688 C 87.222656 2.222656 88.777344 2.527344 90.332031 2.792969 C 92.816406 3.160156 95.363281 3.175781 97.804688 3.832031 C 100.363281 4.492188 102.699219 5.761719 105.140625 6.738281 C 108.046875 7.839844 110.960938 8.917969 113.894531 9.9375 C 115.195312 10.351562 116.488281 10.695312 117.816406 11.101562 C 119.75 11.660156 121.667969 12.382812 123.695312 12.488281 C 125.4375 12.601562 127.183594 12.488281 128.925781 12.539062 C 131.792969 12.582031 134.667969 12.828125 137.523438 12.492188 C 140.371094 12.015625 143.226562 11.722656 146.09375 11.230469 C 148.820312 10.703125 151.507812 10.011719 154.148438 9.152344 C 156.535156 8.496094 158.957031 7.988281 161.40625 7.625 C 162.589844 7.402344 163.738281 7.050781 164.894531 6.734375 C 168.945312 5.695312 172.964844 4.574219 176.921875 3.222656 C 179.390625 2.363281 181.882812 1.511719 184.496094 1.261719 C 185.691406 1.117188 186.886719 1.117188 188.078125 1.261719 C 189.480469 1.449219 190.847656 1.78125 192.226562 2.082031 C 194.871094 2.601562 197.519531 3.253906 199.902344 4.570312 C 203.085938 6.234375 206.007812 8.375 209.316406 9.808594 C 211.296875 10.695312 213.359375 11.28125 215.507812 11.558594 C 217.828125 11.925781 220.160156 12.046875 222.503906 11.921875 C 224.863281 11.722656 227.035156 10.679688 229.320312 10.132812 C 233.003906 9.222656 236.632812 8.011719 240.433594 7.683594 C 243.167969 7.425781 245.910156 7.195312 248.609375 6.707031 C 253.507812 5.621094 258.464844 4.554688 263.480469 4.628906 C 267.261719 4.628906 271.074219 4.398438 274.820312 4.941406 C 277.097656 5.34375 279.25 6.105469 281.273438 7.226562 C 283.164062 8.242188 284.957031 9.410156 286.644531 10.738281 C 286.929688 10.980469 287.203125 11.257812 287.472656 11.488281 C 287.640625 11.683594 287.707031 11.90625 287.671875 12.160156 C 287.671875 12.851562 286.785156 13.648438 286.117188 13.222656 C 284.179688 11.742188 282.105469 10.496094 279.894531 9.480469 C 278.132812 8.734375 276.320312 8.144531 274.460938 7.714844 C 272.824219 7.285156 271.167969 6.992188 269.488281 6.832031 C 265.929688 6.515625 262.371094 7.015625 258.800781 7.316406 Z M 211.769531 5.644531 C 211.875 5.761719 212.050781 5.472656 211.898438 5.441406 C 211.773438 5.382812 211.679688 5.292969 211.613281 5.171875 C 212.085938 5.203125 212.558594 5.078125 213.035156 5.09375 C 213.667969 5.15625 214.304688 5.164062 214.9375 5.117188 C 217.117188 4.910156 219.292969 4.667969 221.457031 4.351562 C 224.050781 3.855469 226.570312 3.03125 229.1875 2.75 C 231.558594 2.476562 233.882812 2.703125 236.15625 3.429688 C 237.777344 3.949219 239.535156 4.167969 240.886719 5.296875 C 241.714844 5.816406 242.738281 4.40625 242.113281 3.738281 C 241.753906 3.398438 241.359375 3.097656 240.9375 2.839844 C 240.1875 2.621094 239.429688 2.464844 238.65625 2.363281 C 236.867188 2.070312 235.027344 2.023438 233.246094 1.84375 C 231.890625 1.71875 230.539062 1.4375 229.171875 1.441406 C 226.421875 1.472656 223.847656 2.519531 221.300781 3.441406 C 218.851562 4.5625 216.820312 4.128906 214.265625 4.324219 C 213.488281 4.453125 212.703125 4.539062 211.914062 4.574219 C 211.183594 4.714844 211.097656 5.328125 211.792969 5.644531 Z M 116.015625 4.84375 C 116.074219 4.921875 116.128906 5 116.171875 5.085938 C 116.300781 5.285156 116.570312 5.144531 116.660156 4.980469 C 118.609375 5.253906 120.53125 5.769531 122.503906 5.847656 C 124.789062 5.921875 127.027344 5.375 129.292969 5.171875 C 131.589844 5.058594 133.835938 4.667969 136.035156 4.003906 C 139.371094 3.097656 142.683594 1.6875 146.191406 1.785156 C 147.820312 1.9375 149.453125 2.117188 151.074219 2.382812 C 152.691406 2.648438 154.308594 3.015625 155.882812 3.472656 C 156.160156 3.566406 156.429688 3.675781 156.699219 3.78125 C 156.992188 3.851562 157.277344 3.820312 157.550781 3.683594 C 157.820312 3.546875 158.015625 3.339844 158.136719 3.058594 C 158.851562 1.621094 157.207031 1.34375 156.199219 1.027344 C 153.597656 0.390625 150.953125 0.09375 148.273438 0.132812 C 146.199219 0.207031 144.160156 0.722656 142.117188 1.09375 C 141.082031 1.285156 139.878906 1.40625 138.792969 1.515625 C 136.601562 1.769531 134.445312 2.214844 132.332031 2.855469 C 131.25 3.171875 130.171875 3.507812 129.0625 3.722656 C 127.625 3.949219 126.171875 4.007812 124.726562 4.136719 C 122.96875 4.261719 121.214844 4.546875 119.457031 4.539062 C 118.75 4.496094 118.058594 4.367188 117.382812 4.152344 C 116.960938 4.039062 116.410156 3.839844 116.011719 4.105469 C 115.835938 4.238281 115.773438 4.414062 115.820312 4.625 C 115.886719 4.738281 115.964844 4.78125 116.035156 4.84375 Z M 111.449219 23.691406 C 109.714844 22.964844 108.210938 21.847656 106.605469 20.898438 C 103.429688 19.050781 100.023438 17.871094 96.382812 17.355469 C 93.484375 16.753906 90.535156 16.214844 87.570312 16.484375 C 85.859375 16.730469 84.207031 17.179688 82.605469 17.828125 C 81.050781 18.347656 79.414062 18.660156 77.828125 19.105469 C 76.789062 19.40625 75.800781 19.90625 74.78125 20.304688 C 74.210938 20.554688 73.398438 20.515625 73.082031 21.140625 C 73.019531 21.296875 73.015625 21.449219 73.074219 21.605469 C 73.128906 21.761719 73.230469 21.875 73.378906 21.953125 C 73.714844 22.148438 74.082031 21.515625 73.710938 21.328125 C 74.851562 20.753906 76.132812 20.664062 77.339844 20.375 C 79.097656 19.957031 80.8125 19.363281 82.585938 19.007812 C 84.050781 18.78125 85.519531 18.625 86.988281 18.488281 C 89.824219 18.136719 92.765625 17.503906 95.527344 18.554688 C 97.90625 19.390625 100.214844 20.382812 102.460938 21.527344 C 104.054688 22.457031 105.53125 23.566406 107.128906 24.476562 C 108.164062 24.980469 109.222656 25.425781 110.3125 25.804688 C 111.4375 26.203125 112.578125 24.300781 111.46875 23.691406 Z M 199.949219 19.507812 C 198.3125 18.289062 196.472656 17.6875 194.4375 17.699219 C 192.519531 17.699219 190.550781 17.648438 188.6875 18.160156 C 187.722656 18.492188 186.796875 18.902344 185.910156 19.402344 C 185.238281 19.78125 184.355469 20.027344 183.96875 20.722656 C 183.875 20.878906 183.839844 21.050781 183.871094 21.230469 C 183.902344 21.414062 183.988281 21.5625 184.128906 21.683594 C 184.242188 21.800781 184.320312 22.003906 184.507812 21.992188 C 184.613281 21.984375 184.703125 21.941406 184.777344 21.859375 C 184.847656 21.78125 184.882812 21.6875 184.878906 21.578125 C 184.878906 21.3125 184.601562 21.230469 184.507812 20.988281 C 185.871094 19.59375 187.953125 19.605469 189.742188 19.257812 C 191.058594 18.984375 192.390625 18.882812 193.730469 18.957031 C 195.679688 19.191406 197.324219 20.359375 198.980469 21.324219 C 200.121094 22.039062 201.332031 22.636719 202.417969 23.453125 C 203.125 23.878906 203.972656 22.617188 203.339844 22.101562 C 202.1875 21.265625 201.175781 20.265625 199.96875 19.507812 Z M 290.347656 20.789062 C 289.539062 20.601562 288.71875 20.488281 287.910156 20.3125 C 285.582031 19.796875 283.335938 19.035156 281.167969 18.039062 C 279.882812 17.519531 278.722656 16.78125 277.449219 16.257812 C 275.652344 15.5625 273.820312 14.824219 271.886719 14.640625 C 270.738281 14.589844 269.597656 14.644531 268.460938 14.800781 C 266.023438 15.011719 264.28125 14.957031 262.117188 16.359375 C 261.777344 16.519531 261.351562 17.003906 261.769531 17.308594 C 262.023438 17.417969 262.28125 17.5 262.550781 17.558594 C 262.652344 17.554688 262.734375 17.511719 262.792969 17.429688 C 262.855469 17.351562 262.875 17.257812 262.851562 17.160156 C 262.808594 17.035156 262.679688 17.023438 262.5625 17.015625 C 262.433594 16.992188 262.308594 16.949219 262.191406 16.882812 C 262.746094 16.472656 263.492188 16.53125 264.144531 16.417969 C 265.457031 16.148438 266.78125 15.976562 268.117188 15.898438 C 270.066406 16.042969 272 16.308594 273.914062 16.699219 C 275.402344 16.957031 276.855469 17.351562 278.269531 17.871094 C 280.3125 18.863281 282.097656 20.328125 284.171875 21.273438 C 285.867188 22.082031 287.640625 22.65625 289.492188 22.992188 C 290.617188 23.238281 291.621094 21.214844 290.367188 20.789062 Z M 290.347656 20.789062 " fill-opacity="1" fill-rule="nonzero"/></g><g fill="#040606" fill-opacity="1"><g transform="translate(48.046098, 55.842825)"><g><path d="M 14.640625 -6.046875 L 14.640625 -1.34375 C 13.035156 -0.238281 11.035156 0.3125 8.640625 0.3125 C 6.253906 0.3125 4.390625 -0.4375 3.046875 -1.9375 C 1.703125 -3.4375 1.03125 -5.65625 1.03125 -8.59375 C 1.03125 -9.894531 1.195312 -11.0625 1.53125 -12.09375 C 1.875 -13.132812 2.316406 -13.992188 2.859375 -14.671875 C 3.410156 -15.347656 4.050781 -15.910156 4.78125 -16.359375 C 6.164062 -17.171875 7.734375 -17.578125 9.484375 -17.578125 C 11.242188 -17.578125 12.882812 -17.222656 14.40625 -16.515625 L 14.40625 -12.09375 L 11.765625 -11.921875 L 11.765625 -13.9375 C 11.765625 -14.195312 11.726562 -14.390625 11.65625 -14.515625 C 11.46875 -14.847656 10.679688 -15.015625 9.296875 -15.015625 C 5.953125 -15.015625 4.28125 -12.941406 4.28125 -8.796875 C 4.28125 -4.441406 5.785156 -2.265625 8.796875 -2.265625 C 9.992188 -2.265625 10.914062 -2.46875 11.5625 -2.875 L 11.5625 -6.75 L 11.53125 -6.75 L 9.53125 -6.828125 L 9.53125 -9.03125 L 16 -9.03125 L 16 -6.953125 L 15.40625 -6.90625 C 15.125 -6.875 14.925781 -6.800781 14.8125 -6.6875 C 14.695312 -6.570312 14.640625 -6.359375 14.640625 -6.046875 Z M 14.640625 -6.046875 "/></g></g></g><g fill="#040606" fill-opacity="1"><g transform="translate(64.694634, 55.842825)"><g><path d="M 5.5 -18.515625 L 5.5 -2.15625 L 6.984375 -2.078125 L 6.984375 0 L 0.8125 0 L 0.8125 -1.96875 L 1.65625 -2.046875 C 2.164062 -2.097656 2.421875 -2.375 2.421875 -2.875 L 2.421875 -15.6875 C 2.421875 -16.0625 2.203125 -16.269531 1.765625 -16.3125 L 0.859375 -16.359375 L 0.859375 -18.515625 Z M 5.5 -18.515625 "/></g></g></g><g fill="#040606" fill-opacity="1"><g transform="translate(72.434518, 55.842825)"><g><path d="M 7.375 -13.453125 C 8.675781 -13.453125 9.707031 -13.132812 10.46875 -12.5 C 11.226562 -11.875 11.609375 -10.988281 11.609375 -9.84375 C 11.609375 -9.082031 11.441406 -8.410156 11.109375 -7.828125 C 10.785156 -7.242188 10.378906 -6.785156 9.890625 -6.453125 C 9.410156 -6.128906 8.820312 -5.863281 8.125 -5.65625 C 6.96875 -5.3125 5.660156 -5.140625 4.203125 -5.140625 C 4.253906 -4.222656 4.539062 -3.484375 5.0625 -2.921875 C 5.582031 -2.359375 6.378906 -2.078125 7.453125 -2.078125 C 8.523438 -2.078125 9.597656 -2.457031 10.671875 -3.21875 L 11.65625 -1.109375 C 11.3125 -0.804688 10.726562 -0.488281 9.90625 -0.15625 C 9.082031 0.175781 8.144531 0.34375 7.09375 0.34375 C 4.976562 0.34375 3.425781 -0.238281 2.4375 -1.40625 C 1.445312 -2.582031 0.953125 -4.191406 0.953125 -6.234375 C 0.953125 -8.273438 1.515625 -9.988281 2.640625 -11.375 C 3.773438 -12.757812 5.351562 -13.453125 7.375 -13.453125 Z M 6.1875 -7.515625 C 6.820312 -7.628906 7.40625 -7.878906 7.9375 -8.265625 C 8.476562 -8.660156 8.75 -9.125 8.75 -9.65625 C 8.75 -10.71875 8.226562 -11.25 7.1875 -11.25 C 6.21875 -11.25 5.472656 -10.863281 4.953125 -10.09375 C 4.441406 -9.320312 4.160156 -8.398438 4.109375 -7.328125 C 4.867188 -7.335938 5.5625 -7.398438 6.1875 -7.515625 Z M 6.1875 -7.515625 "/></g></g></g><g fill="#040606" fill-opacity="1"><g transform="translate(85.005328, 55.842825)"><g><path d="M 2 -0.78125 L 2 -15.6875 C 2 -16.082031 1.78125 -16.289062 1.34375 -16.3125 L 0.4375 -16.359375 L 0.4375 -18.515625 L 5.015625 -18.515625 L 5.015625 -12.359375 C 5.796875 -13.085938 6.84375 -13.453125 8.15625 -13.453125 C 9.78125 -13.453125 11.066406 -12.898438 12.015625 -11.796875 C 12.972656 -10.703125 13.453125 -9.160156 13.453125 -7.171875 C 13.453125 -2.160156 11.359375 0.34375 7.171875 0.34375 C 6.265625 0.34375 5.3125 0.234375 4.3125 0.015625 C 3.320312 -0.203125 2.550781 -0.46875 2 -0.78125 Z M 5.015625 -9.1875 L 5.015625 -2.46875 C 5.671875 -2.125 6.429688 -1.953125 7.296875 -1.953125 C 9.265625 -1.953125 10.25 -3.550781 10.25 -6.75 C 10.25 -9.675781 9.28125 -11.140625 7.34375 -11.140625 C 6.726562 -11.140625 6.1875 -10.957031 5.71875 -10.59375 C 5.25 -10.226562 5.015625 -9.757812 5.015625 -9.1875 Z M 5.015625 -9.1875 "/></g></g></g><g fill="#040606" fill-opacity="1"><g transform="translate(99.446177, 55.842825)"><g><path d="M 12.515625 -12.546875 L 12.515625 -2.875 C 12.515625 -2.601562 12.5625 -2.414062 12.65625 -2.3125 C 12.75 -2.207031 12.921875 -2.144531 13.171875 -2.125 L 14 -2.078125 L 14 0 L 9.875 0 L 9.875 -1.5 L 9.796875 -1.53125 C 8.921875 -0.28125 7.734375 0.34375 6.234375 0.34375 C 4.460938 0.34375 3.148438 -0.21875 2.296875 -1.34375 C 1.453125 -2.46875 1.03125 -4.007812 1.03125 -5.96875 C 1.03125 -8.320312 1.601562 -10.15625 2.75 -11.46875 C 3.894531 -12.789062 5.609375 -13.453125 7.890625 -13.453125 C 9.367188 -13.453125 10.910156 -13.148438 12.515625 -12.546875 Z M 9.5 -4.125 L 9.5 -10.859375 C 9.019531 -11.078125 8.351562 -11.1875 7.5 -11.1875 C 6.34375 -11.1875 5.503906 -10.71875 4.984375 -9.78125 C 4.460938 -8.851562 4.203125 -7.617188 4.203125 -6.078125 C 4.203125 -3.273438 5.101562 -1.875 6.90625 -1.875 C 7.664062 -1.875 8.285156 -2.101562 8.765625 -2.5625 C 9.253906 -3.019531 9.5 -3.539062 9.5 -4.125 Z M 9.5 -4.125 "/></g></g></g><g fill="#040606" fill-opacity="1"><g transform="translate(114.172733, 55.842825)"><g/></g></g><g fill="#040606" fill-opacity="1"><g transform="translate(119.367286, 55.842825)"><g><path d="M 5.21875 -14.234375 L 5.21875 -5.609375 C 5.21875 -4.398438 5.503906 -3.546875 6.078125 -3.046875 C 6.660156 -2.554688 7.492188 -2.3125 8.578125 -2.3125 C 9.660156 -2.3125 10.5 -2.578125 11.09375 -3.109375 C 11.695312 -3.648438 12 -4.441406 12 -5.484375 L 12 -14.984375 L 10.484375 -15.0625 L 10.484375 -17.265625 L 16.640625 -17.265625 L 16.640625 -15.171875 L 15.78125 -15.09375 C 15.28125 -15.039062 15.03125 -14.78125 15.03125 -14.3125 L 15.03125 -5.03125 C 15.03125 -3.351562 14.441406 -2.035156 13.265625 -1.078125 C 12.085938 -0.128906 10.457031 0.34375 8.375 0.34375 C 6.300781 0.34375 4.734375 -0.117188 3.671875 -1.046875 C 2.609375 -1.972656 2.078125 -3.441406 2.078125 -5.453125 L 2.078125 -14.984375 L 0.578125 -15.0625 L 0.578125 -17.265625 L 6.859375 -17.265625 L 6.859375 -15.171875 L 6 -15.09375 C 5.71875 -15.050781 5.515625 -14.972656 5.390625 -14.859375 C 5.273438 -14.753906 5.21875 -14.546875 5.21875 -14.234375 Z M 5.21875 -14.234375 "/></g></g></g><g fill="#040606" fill-opacity="1"><g transform="translate(136.483329, 55.842825)"><g><path d="M 2.46875 -2.90625 L 2.46875 -10.109375 C 2.46875 -10.378906 2.421875 -10.570312 2.328125 -10.6875 C 2.234375 -10.800781 2.0625 -10.863281 1.8125 -10.875 L 0.734375 -10.953125 L 0.734375 -13.0625 L 5.109375 -13.0625 L 5.109375 -11.109375 C 5.421875 -11.785156 5.90625 -12.34375 6.5625 -12.78125 C 7.226562 -13.226562 7.988281 -13.453125 8.84375 -13.453125 C 9.695312 -13.453125 10.515625 -13.257812 11.296875 -12.875 L 11.296875 -9.015625 L 8.875 -8.828125 L 8.875 -10.03125 C 8.875 -10.375 8.789062 -10.585938 8.625 -10.671875 C 8.4375 -10.753906 8.203125 -10.796875 7.921875 -10.796875 C 7.222656 -10.796875 6.65625 -10.550781 6.21875 -10.0625 C 5.78125 -9.570312 5.5625 -8.945312 5.5625 -8.1875 L 5.5625 -2.15625 L 7.8125 -2.046875 L 7.8125 0 L 0.859375 0 L 0.859375 -1.96875 L 1.71875 -2.046875 C 1.976562 -2.085938 2.164062 -2.160156 2.28125 -2.265625 C 2.40625 -2.378906 2.46875 -2.59375 2.46875 -2.90625 Z M 2.46875 -2.90625 "/></g></g></g><g fill="#040606" fill-opacity="1"><g transform="translate(148.48274, 55.842825)"><g><path d="M 14.625 -2.046875 L 14.625 0 L 10.40625 0 L 10.40625 -1.6875 C 9.457031 -0.332031 8.054688 0.34375 6.203125 0.34375 C 3.523438 0.34375 2.1875 -1.15625 2.1875 -4.15625 L 2.1875 -10.15625 C 2.1875 -10.625 1.96875 -10.863281 1.53125 -10.875 L 0.703125 -10.9375 L 0.703125 -13.0625 L 5.265625 -13.0625 L 5.265625 -4.828125 C 5.265625 -3.910156 5.394531 -3.21875 5.65625 -2.75 C 5.914062 -2.28125 6.453125 -2.046875 7.265625 -2.046875 C 8.078125 -2.046875 8.726562 -2.296875 9.21875 -2.796875 C 9.71875 -3.304688 9.96875 -3.914062 9.96875 -4.625 L 9.96875 -10.109375 C 9.96875 -10.378906 9.921875 -10.570312 9.828125 -10.6875 C 9.734375 -10.800781 9.566406 -10.863281 9.328125 -10.875 L 8.484375 -10.9375 L 8.484375 -13.0625 L 13.0625 -13.0625 L 13.0625 -2.875 C 13.0625 -2.601562 13.101562 -2.421875 13.1875 -2.328125 C 13.28125 -2.234375 13.457031 -2.164062 13.71875 -2.125 Z M 14.625 -2.046875 "/></g></g></g><g fill="#040606" fill-opacity="1"><g transform="translate(163.832646, 55.842825)"><g><path d="M 2 -0.78125 L 2 -15.6875 C 2 -16.082031 1.78125 -16.289062 1.34375 -16.3125 L 0.4375 -16.359375 L 0.4375 -18.515625 L 5.015625 -18.515625 L 5.015625 -12.359375 C 5.796875 -13.085938 6.84375 -13.453125 8.15625 -13.453125 C 9.78125 -13.453125 11.066406 -12.898438 12.015625 -11.796875 C 12.972656 -10.703125 13.453125 -9.160156 13.453125 -7.171875 C 13.453125 -2.160156 11.359375 0.34375 7.171875 0.34375 C 6.265625 0.34375 5.3125 0.234375 4.3125 0.015625 C 3.320312 -0.203125 2.550781 -0.46875 2 -0.78125 Z M 5.015625 -9.1875 L 5.015625 -2.46875 C 5.671875 -2.125 6.429688 -1.953125 7.296875 -1.953125 C 9.265625 -1.953125 10.25 -3.550781 10.25 -6.75 C 10.25 -9.675781 9.28125 -11.140625 7.34375 -11.140625 C 6.726562 -11.140625 6.1875 -10.957031 5.71875 -10.59375 C 5.25 -10.226562 5.015625 -9.757812 5.015625 -9.1875 Z M 5.015625 -9.1875 "/></g></g></g><g fill="#040606" fill-opacity="1"><g transform="translate(178.273496, 55.842825)"><g><path d="M 14.625 -2.046875 L 14.625 0 L 10.40625 0 L 10.40625 -1.6875 C 9.457031 -0.332031 8.054688 0.34375 6.203125 0.34375 C 3.523438 0.34375 2.1875 -1.15625 2.1875 -4.15625 L 2.1875 -10.15625 C 2.1875 -10.625 1.96875 -10.863281 1.53125 -10.875 L 0.703125 -10.9375 L 0.703125 -13.0625 L 5.265625 -13.0625 L 5.265625 -4.828125 C 5.265625 -3.910156 5.394531 -3.21875 5.65625 -2.75 C 5.914062 -2.28125 6.453125 -2.046875 7.265625 -2.046875 C 8.078125 -2.046875 8.726562 -2.296875 9.21875 -2.796875 C 9.71875 -3.304688 9.96875 -3.914062 9.96875 -4.625 L 9.96875 -10.109375 C 9.96875 -10.378906 9.921875 -10.570312 9.828125 -10.6875 C 9.734375 -10.800781 9.566406 -10.863281 9.328125 -10.875 L 8.484375 -10.9375 L 8.484375 -13.0625 L 13.0625 -13.0625 L 13.0625 -2.875 C 13.0625 -2.601562 13.101562 -2.421875 13.1875 -2.328125 C 13.28125 -2.234375 13.457031 -2.164062 13.71875 -2.125 Z M 14.625 -2.046875 "/></g></g></g><g fill="#040606" fill-opacity="1"><g transform="translate(193.623402, 55.842825)"><g/></g></g><g fill="#040606" fill-opacity="1"><g transform="translate(198.817955, 55.842825)"><g><path d="M 0.890625 0 L 0.890625 -2.109375 L 1.734375 -2.1875 C 2.242188 -2.238281 2.5 -2.476562 2.5 -2.90625 L 2.5 -14.984375 L 1.015625 -15.0625 L 1.015625 -17.265625 L 13.5625 -17.265625 L 13.5625 -12.953125 L 10.90625 -12.78125 L 10.90625 -13.8125 C 10.90625 -14.101562 10.859375 -14.3125 10.765625 -14.4375 C 10.679688 -14.5625 10.476562 -14.625 10.15625 -14.625 L 5.65625 -14.625 L 5.65625 -10.03125 L 12.046875 -10.03125 L 12.046875 -7.375 L 5.65625 -7.375 L 5.65625 -2.28125 L 7.96875 -2.203125 L 7.96875 0 Z M 0.890625 0 "/></g></g></g><g fill="#040606" fill-opacity="1"><g transform="translate(212.921159, 55.842825)"><g><path d="M 5.5625 -13.0625 L 5.5625 -2.15625 L 7.03125 -2.078125 L 7.03125 0 L 0.859375 0 L 0.859375 -1.96875 L 1.71875 -2.046875 C 2.21875 -2.097656 2.46875 -2.375 2.46875 -2.875 L 2.46875 -10.109375 C 2.46875 -10.398438 2.421875 -10.597656 2.328125 -10.703125 C 2.234375 -10.804688 2.0625 -10.859375 1.8125 -10.859375 L 0.90625 -10.90625 L 0.90625 -13.0625 Z M 2.28125 -15.3125 C 1.914062 -15.664062 1.734375 -16.117188 1.734375 -16.671875 C 1.734375 -17.222656 1.914062 -17.6875 2.28125 -18.0625 C 2.644531 -18.4375 3.117188 -18.625 3.703125 -18.625 C 4.296875 -18.625 4.78125 -18.4375 5.15625 -18.0625 C 5.53125 -17.6875 5.71875 -17.222656 5.71875 -16.671875 C 5.71875 -16.117188 5.53125 -15.664062 5.15625 -15.3125 C 4.78125 -14.957031 4.296875 -14.78125 3.703125 -14.78125 C 3.117188 -14.78125 2.644531 -14.957031 2.28125 -15.3125 Z M 2.28125 -15.3125 "/></g></g></g><g fill="#040606" fill-opacity="1"><g transform="translate(220.609092, 55.842825)"><g><path d="M 7.65625 -11.09375 C 7.238281 -11.25 6.734375 -11.328125 6.140625 -11.328125 C 5.554688 -11.328125 5.085938 -11.191406 4.734375 -10.921875 C 4.378906 -10.648438 4.203125 -10.316406 4.203125 -9.921875 C 4.203125 -9.535156 4.265625 -9.234375 4.390625 -9.015625 C 4.523438 -8.804688 4.734375 -8.625 5.015625 -8.46875 C 5.441406 -8.238281 5.957031 -8.039062 6.5625 -7.875 C 7.175781 -7.71875 7.628906 -7.585938 7.921875 -7.484375 C 8.210938 -7.390625 8.578125 -7.226562 9.015625 -7 C 9.460938 -6.78125 9.800781 -6.539062 10.03125 -6.28125 C 10.632812 -5.644531 10.9375 -4.820312 10.9375 -3.8125 C 10.9375 -2.519531 10.460938 -1.503906 9.515625 -0.765625 C 8.578125 -0.0234375 7.378906 0.34375 5.921875 0.34375 C 3.804688 0.34375 2.210938 0.0703125 1.140625 -0.46875 L 1.140625 -4.078125 L 3.484375 -4.265625 L 3.484375 -3.015625 C 3.484375 -2.253906 4.207031 -1.875 5.65625 -1.875 C 7.113281 -1.875 7.84375 -2.398438 7.84375 -3.453125 C 7.84375 -3.835938 7.71875 -4.148438 7.46875 -4.390625 C 7.21875 -4.628906 6.96875 -4.789062 6.71875 -4.875 C 6.476562 -4.96875 6.1875 -5.054688 5.84375 -5.140625 C 5.507812 -5.222656 5.179688 -5.304688 4.859375 -5.390625 C 4.546875 -5.484375 4.203125 -5.601562 3.828125 -5.75 C 3.453125 -5.894531 3.039062 -6.109375 2.59375 -6.390625 C 1.707031 -6.960938 1.265625 -7.914062 1.265625 -9.25 C 1.265625 -10.59375 1.738281 -11.628906 2.6875 -12.359375 C 3.644531 -13.085938 4.847656 -13.453125 6.296875 -13.453125 C 7.742188 -13.453125 9.175781 -13.101562 10.59375 -12.40625 L 10.59375 -9.296875 L 8.265625 -9.109375 L 8.265625 -10.203125 C 8.265625 -10.640625 8.0625 -10.9375 7.65625 -11.09375 Z M 7.65625 -11.09375 "/></g></g></g><g fill="#040606" fill-opacity="1"><g transform="translate(232.322809, 55.842825)"><g><path d="M 2.4375 -2.90625 L 2.4375 -15.5625 C 2.4375 -15.832031 2.390625 -16.019531 2.296875 -16.125 C 2.203125 -16.226562 2.035156 -16.289062 1.796875 -16.3125 L 0.890625 -16.359375 L 0.890625 -18.515625 L 5.5 -18.515625 L 5.5 -11.53125 C 6.40625 -12.8125 7.671875 -13.453125 9.296875 -13.453125 C 10.609375 -13.453125 11.625 -13.070312 12.34375 -12.3125 C 13.0625 -11.5625 13.421875 -10.4375 13.421875 -8.9375 L 13.421875 -2.15625 L 14.90625 -2.078125 L 14.90625 0 L 8.71875 0 L 8.71875 -1.96875 L 9.578125 -2.046875 C 9.835938 -2.085938 10.023438 -2.160156 10.140625 -2.265625 C 10.265625 -2.378906 10.328125 -2.59375 10.328125 -2.90625 L 10.328125 -8.265625 C 10.328125 -9.160156 10.1875 -9.847656 9.90625 -10.328125 C 9.625 -10.816406 9.070312 -11.0625 8.25 -11.0625 C 7.425781 -11.0625 6.765625 -10.804688 6.265625 -10.296875 C 5.773438 -9.785156 5.53125 -9.164062 5.53125 -8.4375 L 5.53125 -2.15625 L 7.015625 -2.078125 L 7.015625 0 L 0.828125 0 L 0.828125 -1.96875 L 1.6875 -2.046875 C 1.945312 -2.085938 2.132812 -2.160156 2.25 -2.265625 C 2.375 -2.378906 2.4375 -2.59375 2.4375 -2.90625 Z M 2.4375 -2.90625 "/></g></g></g><g fill="#040606" fill-opacity="1"><g transform="translate(247.906468, 55.842825)"><g><path d="M 5.5625 -13.0625 L 5.5625 -2.15625 L 7.03125 -2.078125 L 7.03125 0 L 0.859375 0 L 0.859375 -1.96875 L 1.71875 -2.046875 C 2.21875 -2.097656 2.46875 -2.375 2.46875 -2.875 L 2.46875 -10.109375 C 2.46875 -10.398438 2.421875 -10.597656 2.328125 -10.703125 C 2.234375 -10.804688 2.0625 -10.859375 1.8125 -10.859375 L 0.90625 -10.90625 L 0.90625 -13.0625 Z M 2.28125 -15.3125 C 1.914062 -15.664062 1.734375 -16.117188 1.734375 -16.671875 C 1.734375 -17.222656 1.914062 -17.6875 2.28125 -18.0625 C 2.644531 -18.4375 3.117188 -18.625 3.703125 -18.625 C 4.296875 -18.625 4.78125 -18.4375 5.15625 -18.0625 C 5.53125 -17.6875 5.71875 -17.222656 5.71875 -16.671875 C 5.71875 -16.117188 5.53125 -15.664062 5.15625 -15.3125 C 4.78125 -14.957031 4.296875 -14.78125 3.703125 -14.78125 C 3.117188 -14.78125 2.644531 -14.957031 2.28125 -15.3125 Z M 2.28125 -15.3125 "/></g></g></g><g fill="#040606" fill-opacity="1"><g transform="translate(255.594389, 55.842825)"><g><path d="M 0.703125 -10.984375 L 0.703125 -13.0625 L 5.09375 -13.0625 L 5.09375 -11.375 C 5.539062 -12.007812 6.132812 -12.515625 6.875 -12.890625 C 7.625 -13.265625 8.429688 -13.453125 9.296875 -13.453125 C 10.609375 -13.453125 11.625 -13.070312 12.34375 -12.3125 C 13.0625 -11.5625 13.421875 -10.4375 13.421875 -8.9375 L 13.421875 -2.15625 L 14.90625 -2.078125 L 14.90625 0 L 8.71875 0 L 8.71875 -1.96875 L 9.578125 -2.046875 C 9.835938 -2.085938 10.023438 -2.160156 10.140625 -2.265625 C 10.265625 -2.378906 10.328125 -2.59375 10.328125 -2.90625 L 10.328125 -8.265625 C 10.328125 -9.210938 10.179688 -9.914062 9.890625 -10.375 C 9.597656 -10.832031 9.039062 -11.0625 8.21875 -11.0625 C 7.394531 -11.0625 6.738281 -10.800781 6.25 -10.28125 C 5.769531 -9.757812 5.53125 -9.144531 5.53125 -8.4375 L 5.53125 -2.15625 L 7.015625 -2.078125 L 7.015625 0 L 0.828125 0 L 0.828125 -1.96875 L 1.6875 -2.046875 C 1.945312 -2.085938 2.132812 -2.160156 2.25 -2.265625 C 2.375 -2.378906 2.4375 -2.59375 2.4375 -2.90625 L 2.4375 -10.109375 C 2.4375 -10.617188 2.222656 -10.882812 1.796875 -10.90625 Z M 0.703125 -10.984375 "/></g></g></g><g fill="#040606" fill-opacity="1"><g transform="translate(271.178036, 55.842825)"><g><path d="M 12.40625 -0.03125 C 12.25 1.894531 11.695312 3.304688 10.75 4.203125 C 9.800781 5.109375 8.3125 5.5625 6.28125 5.5625 C 4.257812 5.5625 2.675781 5.273438 1.53125 4.703125 L 1.53125 1.09375 L 4 0.890625 L 4 2.125 C 4 2.59375 4.210938 2.910156 4.640625 3.078125 C 5.078125 3.242188 5.675781 3.328125 6.4375 3.328125 C 7.550781 3.328125 8.332031 2.992188 8.78125 2.328125 C 9.226562 1.660156 9.453125 0.71875 9.453125 -0.5 L 9.453125 -1.921875 C 8.617188 -0.953125 7.46875 -0.46875 6 -0.46875 C 5.09375 -0.46875 4.296875 -0.640625 3.609375 -0.984375 C 2.929688 -1.328125 2.40625 -1.796875 2.03125 -2.390625 C 1.28125 -3.566406 0.90625 -4.953125 0.90625 -6.546875 C 0.90625 -8.816406 1.519531 -10.535156 2.75 -11.703125 C 3.976562 -12.867188 5.613281 -13.453125 7.65625 -13.453125 C 9.351562 -13.453125 10.957031 -13.128906 12.46875 -12.484375 L 12.46875 -2.859375 C 12.46875 -1.390625 12.445312 -0.445312 12.40625 -0.03125 Z M 9.453125 -5.296875 L 9.453125 -10.875 C 8.847656 -11.082031 8.15625 -11.1875 7.375 -11.1875 C 6.320312 -11.1875 5.515625 -10.796875 4.953125 -10.015625 C 4.390625 -9.242188 4.109375 -8.191406 4.109375 -6.859375 C 4.109375 -4.117188 5.003906 -2.75 6.796875 -2.75 C 7.546875 -2.75 8.175781 -2.976562 8.6875 -3.4375 C 9.195312 -3.894531 9.453125 -4.515625 9.453125 -5.296875 Z M 9.453125 -5.296875 "/></g></g></g><g fill="#040606" fill-opacity="1"><g transform="translate(285.313672, 55.842825)"><g/></g></g></svg>