<svg xmlns="http://www.w3.org/2000/svg" xmlns:xlink="http://www.w3.org/1999/xlink" width="86" zoomAndPan="magnify" viewBox="0 0 64.5 68.999997" height="92" preserveAspectRatio="xMidYMid meet" version="1.0"><defs><clipPath id="e1c8dc4cb5"><path d="M 0 0.265625 L 64.003906 0.265625 L 64.003906 68.734375 L 0 68.734375 Z M 0 0.265625 " clip-rule="nonzero"/></clipPath><clipPath id="a4a9a0fb7e"><path d="M 12 12.171875 L 40 12.171875 L 40 42.6875 L 12 42.6875 Z M 12 12.171875 " clip-rule="nonzero"/></clipPath><clipPath id="cabfeeea96"><path d="M 0 0.265625 L 63 0.265625 L 63 68.734375 L 0 68.734375 Z M 0 0.265625 " clip-rule="nonzero"/></clipPath></defs><g clip-path="url(#e1c8dc4cb5)"><path fill="#ffffff" d="M 0 0.265625 L 64.003906 0.265625 L 64.003906 68.734375 L 0 68.734375 Z M 0 0.265625 " fill-opacity="1" fill-rule="nonzero"/></g><g clip-path="url(#a4a9a0fb7e)"><path fill="#ffffff" d="M 19.390625 42.6875 C 19.171875 42.6875 18.953125 42.628906 18.761719 42.527344 C 18.339844 42.296875 18.070312 41.855469 18.0625 41.375 L 17.972656 37.421875 C 16.589844 36.410156 15.417969 35.164062 14.496094 33.71875 C 13.46875 32.109375 12.792969 30.332031 12.492188 28.429688 C 11.910156 24.785156 12.777344 21.132812 14.925781 18.144531 C 16.925781 15.367188 19.851562 13.449219 23.171875 12.738281 L 23.167969 12.71875 L 23.878906 12.601562 C 24.601562 12.488281 25.335938 12.425781 26.0625 12.425781 C 29.292969 12.425781 32.4375 13.589844 34.914062 15.695312 C 37.421875 17.828125 39.085938 20.800781 39.605469 24.0625 C 40.183594 27.707031 39.320312 31.359375 37.167969 34.351562 C 35.015625 37.339844 31.835938 39.304688 28.214844 39.886719 C 27.492188 40.003906 26.757812 40.0625 26.03125 40.0625 C 25.40625 40.0625 24.78125 40.019531 24.160156 39.933594 L 20.097656 42.484375 C 19.945312 42.578125 19.777344 42.640625 19.601562 42.667969 C 19.53125 42.679688 19.460938 42.683594 19.390625 42.683594 Z M 23.234375 12.765625 L 23.234375 12.78125 L 23.207031 12.789062 C 19.890625 13.492188 16.96875 15.40625 14.972656 18.175781 C 12.832031 21.152344 11.96875 24.789062 12.546875 28.417969 C 12.847656 30.3125 13.519531 32.085938 14.542969 33.6875 C 15.464844 35.128906 16.636719 36.371094 18.019531 37.382812 L 18.03125 37.390625 L 18.03125 37.40625 C 18.03125 37.40625 18.117188 41.375 18.117188 41.375 C 18.128906 41.832031 18.386719 42.253906 18.789062 42.476562 C 19.03125 42.605469 19.320312 42.65625 19.59375 42.613281 C 19.761719 42.585938 19.921875 42.523438 20.066406 42.433594 L 24.152344 39.875 L 24.160156 39.875 C 24.777344 39.960938 25.410156 40.007812 26.03125 40.007812 C 26.753906 40.007812 27.488281 39.945312 28.207031 39.832031 C 31.816406 39.25 34.980469 37.292969 37.121094 34.316406 C 39.265625 31.339844 40.128906 27.703125 39.550781 24.074219 C 39.035156 20.824219 37.375 17.863281 34.878906 15.742188 C 32.410156 13.640625 29.28125 12.484375 26.0625 12.484375 C 25.339844 12.484375 24.609375 12.542969 23.890625 12.660156 Z M 23.234375 12.765625 " fill-opacity="1" fill-rule="nonzero"/></g><path fill="#358781" d="M 23.992188 13.316406 L 23.992188 13.320312 C 16.894531 14.460938 12.066406 21.175781 13.199219 28.3125 C 13.785156 32 15.847656 35.082031 18.6875 37.042969 L 18.683594 37.042969 C 18.683594 37.042969 18.777344 41.359375 18.777344 41.359375 C 18.785156 41.582031 18.90625 41.785156 19.101562 41.890625 C 19.222656 41.953125 19.355469 41.976562 19.488281 41.953125 C 19.566406 41.941406 19.644531 41.914062 19.714844 41.871094 L 24.003906 39.179688 L 24.007812 39.179688 C 25.332031 39.390625 26.707031 39.398438 28.101562 39.175781 C 35.199219 38.03125 40.03125 31.316406 38.898438 24.179688 C 37.761719 17.039062 31.089844 12.175781 23.992188 13.316406 Z M 27.910156 37.953125 C 26.515625 38.179688 25.140625 38.148438 23.832031 37.894531 L 23.828125 37.894531 C 23.820312 37.890625 23.804688 37.890625 23.789062 37.894531 C 23.679688 37.910156 23.472656 38.058594 23.414062 38.097656 L 19.980469 40.246094 L 19.902344 36.722656 C 19.902344 36.597656 19.898438 36.53125 19.863281 36.414062 C 19.839844 36.347656 19.789062 36.292969 19.789062 36.292969 C 17.011719 34.539062 14.96875 31.632812 14.410156 28.117188 C 13.382812 21.652344 17.761719 15.570312 24.1875 14.539062 C 24.1875 14.539062 24.191406 14.539062 24.191406 14.539062 C 30.617188 13.503906 36.65625 17.90625 37.683594 24.375 C 38.714844 30.839844 34.335938 36.921875 27.910156 37.957031 Z M 27.910156 37.953125 " fill-opacity="1" fill-rule="nonzero"/><path fill="#ffffff" d="M 27.910156 37.953125 C 26.515625 38.179688 25.140625 38.148438 23.832031 37.894531 L 23.828125 37.894531 C 23.820312 37.890625 23.804688 37.890625 23.789062 37.894531 C 23.679688 37.914062 23.472656 38.0625 23.414062 38.097656 L 19.980469 40.25 L 19.902344 36.722656 C 19.902344 36.597656 19.898438 36.53125 19.863281 36.414062 C 19.839844 36.347656 19.789062 36.292969 19.789062 36.292969 C 17.011719 34.539062 14.96875 31.632812 14.410156 28.117188 C 13.382812 21.652344 17.761719 15.570312 24.1875 14.535156 L 24.1875 14.539062 C 24.1875 14.539062 24.191406 14.539062 24.191406 14.539062 C 30.617188 13.503906 36.65625 17.90625 37.683594 24.375 C 38.714844 30.839844 34.335938 36.921875 27.910156 37.953125 Z M 27.910156 37.953125 " fill-opacity="1" fill-rule="nonzero"/><path fill="#358781" d="M 29.457031 34.65625 C 28.304688 34.65625 27.144531 34.207031 26.003906 33.324219 C 24.953125 32.507812 24.074219 31.445312 23.503906 30.714844 L 23.476562 30.679688 C 22.664062 29.628906 21.929688 28.519531 21.300781 27.382812 C 20.558594 26.046875 19.945312 24.660156 19.484375 23.265625 C 19.003906 21.820312 18.640625 20.152344 19.558594 18.734375 C 20.050781 17.980469 20.890625 17.511719 21.746094 17.511719 C 22.109375 17.511719 22.457031 17.59375 22.78125 17.753906 C 23.652344 18.179688 24.421875 18.996094 24.84375 19.941406 C 25.136719 20.59375 25.171875 21.246094 24.953125 21.875 C 24.800781 22.3125 24.507812 22.59375 24.25 22.84375 C 24.070312 23.015625 23.917969 23.160156 23.832031 23.335938 C 23.742188 23.519531 23.753906 23.75 23.78125 23.90625 C 23.871094 24.429688 24.117188 24.964844 24.308594 25.324219 C 24.808594 26.265625 25.304688 26.917969 25.925781 27.4375 C 26.140625 27.621094 26.375 27.792969 26.613281 27.945312 C 26.636719 27.957031 26.660156 27.972656 26.683594 27.988281 L 26.6875 27.988281 C 26.871094 28.109375 27.046875 28.222656 27.171875 28.222656 C 27.203125 28.222656 27.238281 28.214844 27.277344 28.195312 C 27.386719 28.144531 27.5 28.050781 27.625 27.953125 C 27.652344 27.929688 27.683594 27.90625 27.710938 27.882812 C 28.113281 27.566406 28.578125 27.40625 29.101562 27.40625 C 29.851562 27.40625 30.710938 27.757812 31.460938 28.375 C 32.523438 29.246094 33.132812 30.5 33.089844 31.722656 C 33.085938 31.886719 33.066406 32.050781 33.035156 32.203125 C 32.742188 33.660156 31.394531 34.390625 30.230469 34.589844 C 29.972656 34.632812 29.714844 34.65625 29.457031 34.65625 Z M 21.746094 17.621094 C 20.925781 17.621094 20.121094 18.070312 19.648438 18.792969 C 18.753906 20.171875 19.113281 21.808594 19.585938 23.230469 C 20.046875 24.621094 20.65625 26 21.394531 27.332031 C 22.023438 28.460938 22.75 29.566406 23.5625 30.613281 L 23.589844 30.648438 C 24.15625 31.375 25.027344 32.429688 26.070312 33.242188 C 27.191406 34.109375 28.328125 34.546875 29.457031 34.546875 C 29.707031 34.546875 29.960938 34.527344 30.210938 34.484375 C 31.34375 34.289062 32.648438 33.582031 32.929688 32.183594 C 32.960938 32.035156 32.976562 31.878906 32.984375 31.722656 C 33.023438 30.53125 32.429688 29.308594 31.390625 28.457031 C 30.660156 27.859375 29.824219 27.515625 29.101562 27.515625 C 28.605469 27.515625 28.160156 27.667969 27.777344 27.96875 C 27.75 27.992188 27.71875 28.015625 27.691406 28.039062 C 27.5625 28.140625 27.441406 28.238281 27.320312 28.292969 C 27.265625 28.316406 27.21875 28.328125 27.171875 28.328125 C 27.015625 28.328125 26.828125 28.207031 26.628906 28.082031 L 26.625 28.078125 C 26.601562 28.0625 26.578125 28.050781 26.558594 28.035156 C 26.3125 27.882812 26.078125 27.707031 25.855469 27.519531 C 25.226562 26.988281 24.71875 26.328125 24.214844 25.375 C 24.019531 25.007812 23.769531 24.460938 23.675781 23.925781 C 23.648438 23.75 23.632812 23.5 23.738281 23.285156 C 23.832031 23.097656 23.992188 22.941406 24.175781 22.765625 C 24.425781 22.523438 24.707031 22.253906 24.851562 21.839844 C 25.0625 21.238281 25.027344 20.613281 24.746094 19.984375 C 24.332031 19.0625 23.582031 18.261719 22.734375 17.847656 C 22.421875 17.695312 22.089844 17.621094 21.746094 17.621094 Z M 21.746094 17.621094 " fill-opacity="1" fill-rule="nonzero"/><path fill="#358781" d="M 32.585938 31.707031 C 32.625 30.558594 32.007812 29.480469 31.140625 28.769531 C 30.296875 28.078125 28.992188 27.515625 28.023438 28.28125 C 27.851562 28.417969 27.683594 28.566406 27.484375 28.65625 C 27.050781 28.855469 26.703125 28.601562 26.34375 28.375 C 26.085938 28.207031 25.835938 28.027344 25.601562 27.828125 C 24.847656 27.191406 24.324219 26.425781 23.863281 25.5625 C 23.613281 25.089844 23.378906 24.527344 23.285156 23.996094 C 23.234375 23.695312 23.246094 23.378906 23.382812 23.109375 C 23.652344 22.558594 24.269531 22.308594 24.476562 21.707031 C 24.652344 21.203125 24.621094 20.683594 24.382812 20.148438 C 24.027344 19.351562 23.351562 18.597656 22.5625 18.207031 C 21.625 17.75 20.535156 18.164062 19.980469 19.015625 C 19.167969 20.265625 19.527344 21.792969 19.960938 23.105469 C 20.425781 24.5 21.027344 25.851562 21.738281 27.136719 C 22.367188 28.265625 23.082031 29.34375 23.871094 30.367188 C 23.882812 30.378906 23.890625 30.390625 23.898438 30.402344 C 25.378906 32.300781 27.5 34.542969 30.144531 34.089844 C 31.226562 33.902344 32.308594 33.257812 32.539062 32.105469 C 32.566406 31.972656 32.582031 31.839844 32.585938 31.707031 Z M 32.585938 31.707031 " fill-opacity="1" fill-rule="nonzero"/><g clip-path="url(#cabfeeea96)"><path fill="#ffffff" d="M 16.738281 68.734375 C 16.246094 68.734375 15.757812 68.609375 15.324219 68.375 C 14.382812 67.859375 13.785156 66.871094 13.757812 65.792969 L 13.5625 56.917969 C 10.46875 54.648438 7.851562 51.855469 5.78125 48.609375 C 3.480469 45.003906 1.972656 41.007812 1.296875 36.742188 C 0 28.5625 1.9375 20.367188 6.75 13.660156 C 11.21875 7.433594 17.765625 3.128906 25.191406 1.53125 L 25.183594 1.492188 L 26.777344 1.230469 C 28.394531 0.96875 30.039062 0.835938 31.664062 0.835938 C 38.890625 0.835938 45.921875 3.441406 51.46875 8.171875 C 57.074219 12.953125 60.804688 19.621094 61.964844 26.945312 C 63.257812 35.125 61.324219 43.320312 56.507812 50.027344 C 51.695312 56.734375 44.582031 61.148438 36.480469 62.457031 C 34.859375 62.71875 33.214844 62.847656 31.589844 62.847656 C 30.195312 62.847656 28.792969 62.753906 27.410156 62.558594 L 18.3125 68.277344 C 17.976562 68.492188 17.601562 68.628906 17.207031 68.695312 C 17.050781 68.71875 16.894531 68.730469 16.734375 68.730469 Z M 25.332031 1.597656 L 25.335938 1.632812 L 25.277344 1.644531 C 17.855469 3.226562 11.316406 7.519531 6.851562 13.738281 C 2.058594 20.414062 0.132812 28.578125 1.421875 36.71875 C 2.097656 40.96875 3.597656 44.945312 5.890625 48.539062 C 7.953125 51.777344 10.570312 54.566406 13.664062 56.832031 L 13.691406 56.851562 L 13.691406 56.882812 C 13.691406 56.882812 13.886719 65.789062 13.886719 65.789062 C 13.910156 66.820312 14.484375 67.769531 15.386719 68.257812 C 15.933594 68.558594 16.574219 68.664062 17.191406 68.566406 C 17.566406 68.507812 17.925781 68.371094 18.25 68.167969 L 27.382812 62.425781 L 27.40625 62.425781 C 28.789062 62.621094 30.199219 62.71875 31.59375 62.71875 C 33.210938 62.71875 34.851562 62.585938 36.464844 62.328125 C 44.53125 61.027344 51.617188 56.628906 56.40625 49.953125 C 61.199219 43.273438 63.128906 35.109375 61.839844 26.96875 C 60.683594 19.675781 56.972656 13.035156 51.390625 8.273438 C 45.863281 3.5625 38.859375 0.964844 31.664062 0.964844 C 30.046875 0.964844 28.410156 1.097656 26.800781 1.359375 Z M 25.332031 1.597656 " fill-opacity="1" fill-rule="nonzero"/></g><path fill="#358781" d="M 27.03125 2.832031 L 27.03125 2.835938 C 27.03125 2.835938 27.027344 2.835938 27.027344 2.835938 C 11.152344 5.398438 0.34375 20.464844 2.882812 36.484375 C 4.195312 44.757812 8.8125 51.671875 15.15625 56.070312 L 15.152344 56.070312 C 15.152344 56.070312 15.363281 65.757812 15.363281 65.757812 C 15.375 66.253906 15.648438 66.707031 16.085938 66.945312 C 16.355469 67.089844 16.660156 67.140625 16.953125 67.09375 C 17.132812 67.0625 17.304688 67 17.464844 66.902344 L 27.058594 60.867188 L 27.066406 60.867188 C 30.023438 61.339844 33.105469 61.355469 36.226562 60.851562 C 52.101562 58.289062 62.917969 43.226562 60.375 27.203125 C 57.839844 11.179688 42.910156 0.269531 27.03125 2.832031 Z M 35.792969 58.117188 C 32.679688 58.621094 29.601562 58.550781 26.675781 57.984375 L 26.667969 57.984375 C 26.640625 57.976562 26.609375 57.976562 26.574219 57.980469 C 26.332031 58.019531 25.867188 58.351562 25.738281 58.433594 L 18.058594 63.261719 L 17.882812 55.351562 C 17.875 55.070312 17.875 54.917969 17.792969 54.660156 C 17.746094 54.507812 17.625 54.386719 17.625 54.386719 C 11.410156 50.449219 6.84375 43.929688 5.597656 36.042969 C 3.296875 21.535156 13.089844 7.890625 27.464844 5.570312 L 27.464844 5.574219 C 27.464844 5.574219 27.472656 5.574219 27.472656 5.574219 C 41.851562 3.253906 55.367188 13.132812 57.664062 27.644531 C 59.964844 42.152344 50.175781 55.796875 35.792969 58.117188 Z M 35.792969 58.117188 " fill-opacity="1" fill-rule="nonzero"/><path fill="#ffffff" d="M 35.792969 58.117188 C 32.679688 58.621094 29.601562 58.550781 26.675781 57.984375 L 26.667969 57.984375 C 26.640625 57.976562 26.609375 57.976562 26.574219 57.984375 C 26.328125 58.023438 25.867188 58.355469 25.738281 58.433594 L 18.058594 63.261719 L 17.882812 55.351562 C 17.878906 55.070312 17.875 54.917969 17.792969 54.660156 C 17.746094 54.507812 17.625 54.386719 17.625 54.386719 C 11.410156 50.449219 6.84375 43.929688 5.597656 36.042969 C 3.296875 21.535156 13.089844 7.890625 27.464844 5.570312 C 27.464844 5.570312 27.472656 5.570312 27.472656 5.570312 C 41.851562 3.253906 55.367188 13.132812 57.664062 27.640625 C 59.964844 42.152344 50.175781 55.796875 35.792969 58.117188 Z M 35.792969 58.117188 " fill-opacity="1" fill-rule="nonzero"/><path fill="#358781" d="M 39.253906 50.714844 C 36.679688 50.714844 34.078125 49.710938 31.53125 47.730469 C 29.175781 45.898438 27.210938 43.507812 25.9375 41.871094 L 25.875 41.789062 C 24.058594 39.433594 22.417969 36.945312 21.007812 34.398438 C 19.34375 31.398438 17.980469 28.289062 16.945312 25.15625 C 15.871094 21.910156 15.054688 18.167969 17.113281 14.992188 C 18.214844 13.296875 20.085938 12.246094 22.003906 12.246094 C 22.8125 12.246094 23.59375 12.425781 24.324219 12.785156 C 26.269531 13.738281 27.992188 15.574219 28.9375 17.695312 C 29.589844 19.164062 29.671875 20.625 29.179688 22.035156 C 28.839844 23.019531 28.183594 23.652344 27.605469 24.207031 C 27.210938 24.589844 26.867188 24.921875 26.675781 25.308594 C 26.46875 25.726562 26.5 26.242188 26.5625 26.597656 C 26.761719 27.765625 27.3125 28.96875 27.738281 29.773438 C 28.855469 31.882812 29.96875 33.347656 31.351562 34.519531 C 31.839844 34.933594 32.359375 35.3125 32.894531 35.652344 C 32.945312 35.6875 32.996094 35.71875 33.046875 35.75 L 33.054688 35.757812 C 33.472656 36.023438 33.863281 36.277344 34.140625 36.277344 C 34.214844 36.277344 34.292969 36.257812 34.378906 36.21875 C 34.625 36.105469 34.882812 35.894531 35.15625 35.671875 C 35.222656 35.621094 35.285156 35.570312 35.351562 35.519531 C 36.246094 34.808594 37.292969 34.445312 38.460938 34.445312 C 40.136719 34.445312 42.058594 35.238281 43.738281 36.621094 C 46.117188 38.578125 47.480469 41.386719 47.386719 44.136719 C 47.375 44.503906 47.332031 44.867188 47.261719 45.214844 C 46.609375 48.476562 43.59375 50.117188 40.988281 50.566406 C 40.414062 50.664062 39.832031 50.714844 39.253906 50.714844 Z M 22.003906 12.484375 C 20.167969 12.484375 18.371094 13.496094 17.316406 15.125 C 15.3125 18.210938 16.117188 21.886719 17.171875 25.078125 C 18.203125 28.195312 19.5625 31.292969 21.21875 34.277344 C 22.621094 36.816406 24.253906 39.292969 26.066406 41.640625 L 26.128906 41.722656 C 27.394531 43.347656 29.34375 45.722656 31.679688 47.539062 C 34.183594 49.484375 36.734375 50.472656 39.253906 50.472656 C 39.816406 50.472656 40.386719 50.421875 40.945312 50.328125 C 43.472656 49.894531 46.398438 48.308594 47.027344 45.167969 C 47.09375 44.832031 47.132812 44.484375 47.144531 44.128906 C 47.238281 41.457031 45.90625 38.71875 43.582031 36.808594 C 41.945312 35.460938 40.078125 34.691406 38.460938 34.691406 C 37.347656 34.691406 36.351562 35.03125 35.5 35.710938 C 35.433594 35.761719 35.371094 35.8125 35.308594 35.863281 C 35.019531 36.09375 34.75 36.3125 34.476562 36.4375 C 34.359375 36.492188 34.25 36.519531 34.140625 36.519531 C 33.796875 36.519531 33.375 36.25 32.925781 35.960938 L 32.917969 35.957031 C 32.871094 35.925781 32.820312 35.890625 32.769531 35.859375 C 32.222656 35.511719 31.695312 35.125 31.199219 34.703125 C 29.792969 33.511719 28.660156 32.027344 27.527344 29.886719 C 27.09375 29.070312 26.53125 27.839844 26.324219 26.636719 C 26.257812 26.246094 26.226562 25.679688 26.460938 25.203125 C 26.667969 24.777344 27.027344 24.429688 27.4375 24.03125 C 27.996094 23.496094 28.628906 22.886719 28.953125 21.957031 C 29.421875 20.605469 29.34375 19.203125 28.714844 17.792969 C 27.792969 15.722656 26.113281 13.933594 24.21875 13 C 23.519531 12.660156 22.777344 12.484375 22.003906 12.484375 Z M 22.003906 12.484375 " fill-opacity="1" fill-rule="nonzero"/><path fill="#358781" d="M 46.257812 44.097656 C 46.347656 41.519531 44.964844 39.101562 43.023438 37.503906 C 41.136719 35.949219 38.21875 34.691406 36.046875 36.414062 C 35.664062 36.71875 35.289062 37.050781 34.84375 37.253906 C 33.875 37.699219 33.097656 37.128906 32.292969 36.617188 C 31.710938 36.246094 31.15625 35.835938 30.628906 35.390625 C 28.945312 33.964844 27.769531 32.246094 26.742188 30.308594 C 26.179688 29.246094 25.652344 27.984375 25.449219 26.792969 C 25.332031 26.125 25.363281 25.410156 25.664062 24.804688 C 26.269531 23.570312 27.648438 23.007812 28.113281 21.660156 C 28.507812 20.527344 28.441406 19.359375 27.90625 18.164062 C 27.109375 16.375 25.601562 14.679688 23.828125 13.808594 C 21.730469 12.777344 19.292969 13.710938 18.054688 15.617188 C 16.234375 18.425781 17.039062 21.847656 18.011719 24.792969 C 19.046875 27.929688 20.390625 30.957031 21.988281 33.839844 C 23.394531 36.375 24.996094 38.796875 26.761719 41.089844 C 26.785156 41.113281 26.804688 41.140625 26.824219 41.167969 C 30.132812 45.425781 34.875 50.457031 40.792969 49.441406 C 43.210938 49.027344 45.636719 47.578125 46.15625 44.988281 C 46.214844 44.695312 46.246094 44.394531 46.257812 44.097656 Z M 46.257812 44.097656 " fill-opacity="1" fill-rule="nonzero"/></svg>